<?xml version="1.0" encoding="UTF-8"?>
<svg id="character_changebtn.svg" xmlns="http://www.w3.org/2000/svg" version="1.1" viewBox="0 0 81 81">
  <!-- Generator: Adobe Illustrator 29.8.2, SVG Export Plug-In . SVG Version: 2.1.1 Build 3)  -->
  <defs>
    <style>
      .st0 {
        fill: #fff;
      }
    </style>
  </defs>
  <path class="st0" d="M40.5,81C18.17,81,0,62.83,0,40.5S18.17,0,40.5,0s40.5,18.17,40.5,40.5-18.17,40.5-40.5,40.5ZM40.5,1C18.72,1,1,18.72,1,40.5s17.72,39.5,39.5,39.5,39.5-17.72,39.5-39.5S62.28,1,40.5,1ZM56.5,40.5c0,4.53-1.93,8.85-5.31,11.88l-.48-.92c6.06-5.63,6.41-15.11.78-21.18-2.84-3.05-6.82-4.79-10.99-4.78-.56,0-1.11.04-1.66.1l4.32,4.32-.71.71-4.84-4.84c-.08.02-.16.02-.24.04l-.31-.59-.24-.24.08-.08h0l.63-.63,4.92-4.92.71.71-4.54,4.54c.62-.08,1.25-.12,1.88-.12,8.84,0,16,7.16,16,16ZM25.5,40.5c0,8.28,6.72,15,15,15h0c.56,0,1.11-.04,1.66-.1l-4.32-4.32.71-.71,4.84,4.84c.08-.02.16-.02.24-.04l.31.59.24.24-.08.08h0l-.63.63-4.92,4.92-.71-.71,4.54-4.54c-.62.08-1.25.12-1.88.12-8.83,0-15.99-7.14-16-15.97,0-4.54,1.93-8.87,5.31-11.91l.48.92c-3.05,2.83-4.78,6.8-4.78,10.96h-.01Z"/>
</svg>