<?xml version="1.0" encoding="UTF-8"?>
<svg id="deco_umbrella3.svg" xmlns="http://www.w3.org/2000/svg" version="1.1" viewBox="0 0 299 299">
  <!-- Generator: Adobe Illustrator 29.8.2, SVG Export Plug-In . SVG Version: 2.1.1 Build 3)  -->
  <defs>
    <style>
      .st0 {
        fill: #282828;
      }
    </style>
  </defs>
  <path class="st0" d="M299.37,149.15c0-.09-.02-.17-.07-.25-6.56-11.48-8.31-24.85-4.94-37.63.02-.08.02-.17,0-.25l-.18-.62c-.02-.08-.07-.16-.13-.22-9.29-9.38-14.45-21.82-14.52-35.02,0-.09-.02-.17-.07-.25l-.37-.64c-.04-.07-.11-.14-.18-.18-11.4-6.66-19.59-17.34-23.07-30.07-.02-.08-.07-.16-.13-.22l-.5-.5c-.06-.06-.14-.1-.22-.13-6.3-1.72-12.12-4.61-17.31-8.59-5.18-3.97-9.47-8.84-12.76-14.48-.04-.07-.11-.14-.18-.18l-.64-.37c-.08-.04-.16-.07-.25-.07-6.53-.03-12.89-1.31-18.92-3.81-6.05-2.5-11.47-6.1-16.11-10.71-.06-.06-.14-.1-.22-.13l-.62-.18c-.08-.02-.17-.02-.26,0-6.33,1.67-12.83,2.08-19.33,1.23-6.48-.85-12.64-2.92-18.31-6.16-.08-.04-.16-.07-.25-.07h-.7c-.09,0-.17.02-.25.07-5.67,3.24-11.83,5.32-18.31,6.16-6.49.86-12.99.45-19.32-1.22-.08-.02-.17-.02-.26,0l-.62.17c-.08.02-.16.07-.22.13-4.64,4.61-10.06,8.21-16.11,10.71-6.03,2.5-12.39,3.78-18.92,3.81-.09,0-.17.02-.25.07l-.64.37c-.07.04-.14.11-.18.18-3.29,5.64-7.58,10.51-12.76,14.48-5.18,3.98-11,6.87-17.3,8.58-.08.02-.16.07-.22.13l-.5.5c-.06.06-.11.14-.13.22-1.72,6.3-4.61,12.13-8.59,17.31-3.97,5.18-8.84,9.48-14.48,12.76-.07.04-.14.11-.18.18l-.37.64c-.04.08-.07.16-.07.25-.03,6.53-1.31,12.89-3.81,18.92-2.5,6.05-6.1,11.47-10.71,16.11-.06.06-.1.14-.13.22l-.18.62c-.02.08-.02.17,0,.25,1.67,6.33,2.09,12.83,1.23,19.32-.85,6.48-2.92,12.64-6.16,18.31-.04.08-.07.16-.07.25v.7c0,.09.02.17.07.25,3.24,5.67,5.32,11.83,6.16,18.31.86,6.49.45,12.99-1.22,19.33-.02.08-.02.17,0,.26l.17.62c.02.08.07.16.13.22,4.61,4.64,8.21,10.06,10.71,16.11,2.5,6.03,3.78,12.39,3.81,18.92,0,.09.02.17.07.25l.37.64c.04.07.11.14.18.18,5.64,3.29,10.51,7.58,14.48,12.76,3.98,5.18,6.87,11,8.58,17.3.02.08.07.16.13.22l.5.5c.06.06.14.11.22.13,12.73,3.48,23.41,11.67,30.07,23.07.04.08.11.14.18.18l.64.37c.08.04.16.07.25.07,13.21.07,25.65,5.23,35.03,14.53.06.06.14.1.22.13l.62.18c.08.02.17.02.26,0,12.79-3.37,26.15-1.62,37.63,4.94.08.04.16.07.25.07h.7c.09,0,.17-.02.25-.07,11.49-6.55,24.85-8.31,37.64-4.94.08.02.17.02.25,0l.62-.18c.08-.02.16-.07.22-.13,9.38-9.29,21.82-14.45,35.02-14.52.09,0,.17-.02.25-.07l.64-.37c.07-.04.14-.1.18-.18,6.66-11.4,17.34-19.59,30.07-23.07.08-.02.16-.07.22-.13l.5-.5c.06-.06.11-.14.13-.22,3.48-12.73,11.67-23.41,23.07-30.07.08-.04.14-.11.18-.18l.37-.64c.04-.08.07-.16.07-.25.07-13.21,5.23-25.65,14.53-35.03.06-.06.1-.14.13-.22l.18-.62c.02-.08.02-.17,0-.25-3.37-12.79-1.62-26.15,4.94-37.64.04-.08.07-.16.07-.25v-.7h0ZM298.22,149h-89.65c.93-2.58.57-5.18.55-5.32l-.07-.49-.49.07c-.18.02-4.38.63-6.66,3.67-.51.68-.94,1.38-1.29,2.07h-31.26c-.04-1.43-.22-2.81-.55-4.15l53.63-14.37c-.05.25-.08.51-.1.77-.18,2.71.42,5.19,1.52,6.31.16.16.38.22.59.16.33-.09.64-.58.88-1.14.18.56.42,1.06.75,1.2.08.03.16.05.24.05.14,0,.28-.05.4-.15,1.22-1.02,2.1-3.31,2.28-5.97.07-1.03-.1-2.01-.37-2.89l64.65-17.32c-3.23,12.75-1.48,26.03,4.94,37.51h0ZM202.3,151.35c-.49.46-1.27,1.05-1.74,1.32-.03-1.35.78-3.34,2.13-5.14,1.58-2.11,4.34-2.92,5.48-3.18.07,1.17.06,4.04-1.52,6.15-1.32,1.76-2.98,3.09-4.29,3.46.11-.51.41-1.41.73-2.02l-.79-.59h0ZM149.5,168.38c-10.41,0-18.88-8.47-18.88-18.88s8.47-18.88,18.88-18.88,18.88,8.47,18.88,18.88-8.47,18.88-18.88,18.88ZM148.81,268.7c.16-.55.65-1.58,1.06-2.2l-.72-.67c-.62.47-1.59,1.04-2.13,1.27.09-1.49,1.22-3.61,2.94-5.46,2.01-2.16,5.18-2.7,6.42-2.84-.05,1.25-.38,4.45-2.39,6.6-1.68,1.8-3.7,3.08-5.18,3.3h0ZM147.02,267.53h0l-.5.05.5-.05ZM145.96,42.73c-.09,0-.2,0-.31-.02.49-.33,1.06-.53,1.66-.58.83-.07,1.66.1,2.39.48-.57.6-1.3,1.03-2.11,1.23-.59.14-1.2.13-1.76,0,.1-.05.2-.09.29-.12l-.16-.97h0ZM150.59,61.55c.81.07,2,.51,3.25,1.45,1.09.96,1.86,2.25,2.19,3.66-1.45.08-2.89-.3-4.12-1.09-1.02-.66-1.8-1.61-2.24-2.68.34.1.78.26,1.1.43l.59-.79c-.26-.28-.56-.67-.77-.98ZM228,131.64c-.14,2.07-.77,3.98-1.6,4.95-.18-.47-.39-1.32-.45-1.95l-.98-.07c-.14.61-.45,1.45-.69,1.92-.71-1.07-1.08-3.05-.94-5.17.17-2.49,1.93-4.54,2.71-5.35.67.91,2.12,3.19,1.95,5.67ZM293.01,110.52l-64.73,17.34c-.73-1.72-1.74-2.9-1.81-2.98l-.33-.37-.37.32c-.11.09-2.16,1.89-3.05,4.52l-54.17,14.51c-.4-1.35-.93-2.65-1.6-3.87l45.6-26.33c.66.96,1.51,1.91,2.52,2.79,2.56,2.23,6.11,2.47,7.54,2.47.36,0,.58-.02.62-.02l.49-.04-.03-.49c0-.2-.35-4.95-3.57-7.75-.32-.28-.64-.54-.97-.78l7.47-4.31c-.02,1.15.2,2.16.63,2.8l.17.25h.05l.03.03.29-.03c.26-.03.53-.28.77-.6.07.38.2.72.42.86.09.06.19.09.3.09.12,0,.25-.04.38-.12,1.38-1.1,2.31-2.67,2.62-4.41.13-.73.15-1.47.09-2.2l46.16-26.65c.17,13.15,5.3,25.53,14.47,34.96h.01ZM213.72,108.57c1.54.03,3.78,1.11,5.75,2.83,2.31,2.01,2.98,5.28,3.16,6.54-1.27,0-4.6-.21-6.91-2.23-1.93-1.68-3.32-3.72-3.59-5.24.57.14,1.66.61,2.33,1.02l.65-.74c-.52-.63-1.15-1.63-1.39-2.17h0ZM228.54,106.06c-.17.39-.46.9-.69,1.24-.29-.83-.36-2.23.07-3.91.5-1.5,1.47-2.8,2.74-3.71.69,1.41.92,3.02.65,4.57-.23,1.31-.87,2.5-1.78,3.39-.05-.39-.07-.93-.04-1.33l-.96-.24h0ZM278.04,74.71l-45.82,26.45c-.19-.86-.5-1.69-.94-2.45l-.26-.44-.44.27c-1.7,1.04-2.98,2.65-3.62,4.57-.11.42-.18.83-.24,1.23l-8.47,4.89c-1.85-1.19-3.72-1.81-5.09-1.63-.23.03-.42.17-.5.39-.16.39.17,1.11.57,1.79-.71-.28-1.45-.46-1.83-.24-.21.12-.32.34-.31.59.04.81.38,1.74.93,2.71l-45.59,26.32c-.73-1.2-1.59-2.31-2.55-3.32l32.92-32.92c.23.09.48.18.73.26-.78.29-1.54.67-1.68,1.12-.07.23,0,.48.16.66,1.32,1.33,4.17,2.17,7.31,2.17h.32c4.51-.08,8.02-3.71,8.17-3.86l.34-.36-.35-.35c-.15-.15-3.79-3.61-8.3-3.56-1.1.02-2.15.15-3.12.35l9.08-9.08.11.22c.6,1.24,1.62,2.21,2.89,2.74.81.34,1.67.5,2.53.5.66,0,1.33-.1,1.96-.3l.49-.15-.17-.49c-.5-1.46-1.5-2.71-2.81-3.52-.99-.6-2.12-.86-3.26-.78l19.9-19.89c2.46,4.75,7.87,6.94,8.11,7.03l.46.18.19-.46c.1-.25,2.47-6.21.21-11.47-.43-1-.92-1.94-1.45-2.8l16.37-16.38c3.58,12.66,11.73,23.29,23.03,30.02h.02ZM203.53,99.97c3.27-.05,6.18,2.08,7.2,2.94-.99.89-3.79,3.13-7.08,3.19-2.76.06-5.33-.59-6.62-1.62.54-.3,1.77-.73,2.62-.88l-.02-.99c-.89-.13-2.13-.48-2.7-.74,1.23-1.1,3.81-1.85,6.62-1.9h-.02ZM211.43,89.46c.89-.04,1.76.19,2.52.66.96.59,1.73,1.46,2.19,2.48-1.1.23-2.25.12-3.29-.31-.83-.35-1.54-.93-2.02-1.63.24.04.51.09.72.16l.45-.88c-.18-.13-.39-.31-.56-.48h-.01ZM210.19,89.52s.03.07.05.1c-.07,0-.13.02-.19.04l.14-.14ZM233.45,57.18c1.98.86,4.24,3.64,5.72,7.09,1.74,4.05.45,8.72-.04,10.22-1.43-.67-5.7-2.96-7.44-7-1.47-3.42-1.94-6.88-1.23-8.94.58.39,1.84,1.79,2.51,2.84l.91-.39c-.3-1.25-.49-3.09-.42-3.81h-.01ZM237.08,35.36c5.16,3.97,10.96,6.87,17.22,8.63l-16.23,16.23c-1.43-2.09-3.09-3.6-4.63-4.11h0c-.24-.08-.49-.03-.67.14-.44.41-.39,1.76-.24,2.96-.76-.89-1.69-1.82-2.33-1.76-.26.02-.48.18-.58.43-.94,2.2-.52,6.01,1.03,9.75l-32.28,32.28c-1.09.42-1.98.97-2.53,1.61l-.94,1.1.95-.19-32.69,32.69c-1.01-.96-2.13-1.82-3.32-2.55l20.82-36.06c.52.77,1.17,1.55,1.93,2.28,2.54,2.44,6.37,2.55,7.07,2.55h.59v-.51c0-.18-.1-4.43-2.84-7.06-1.19-1.14-2.5-2.01-3.71-2.52l40.58-70.29c3.33,5.59,7.62,10.44,12.79,14.4h.01ZM182.29,94.35l.68-.71c-.4-.54-.88-1.39-1.1-1.89,1.35.13,3.22,1.18,4.85,2.74,1.91,1.83,2.38,4.67,2.5,5.83-1.17-.07-4.02-.43-5.93-2.26-1.59-1.53-2.71-3.35-2.93-4.69.5.17,1.35.58,1.92.97h0ZM204.56,16.58c6.01,2.5,12.36,3.8,18.87,3.88l-40.68,70.45c-.51-.13-.99-.19-1.41-.16h0c-.23.02-.42.15-.51.35-.15.33.06.93.35,1.52-.58-.25-1.18-.4-1.51-.23-.21.11-.33.32-.33.56,0,.76.27,1.65.75,2.57l-21.09,36.53c-1.22-.67-2.52-1.2-3.88-1.6l9.23-34.46c1.14-1.06,2.24-2.59,3.09-4.36,1.59-3.34.71-7.14.33-8.41l1.84-6.85c.1.56.31,1.1.62,1.6l.3.31.29-.07c.13-.03.25-.12.36-.24.08.13.17.24.29.29l.39.14.25-.26c.8-.83,1.27-1.93,1.33-3.08.05-1.3-.35-2.58-1.14-3.61l-.31-.41-.4.32c-.33.27-.61.58-.87.91l4.75-17.71c.08.03.13.05.15.06l.47.17.17-.46c.06-.17,1.05-2.91.94-6.22l4.85-18.1c.59-.16,1.18-.36,1.77-.61,3.61-1.52,5.27-5.58,5.34-5.75l.18-.46-.46-.19c-.12-.05-2.23-.9-4.74-.83l4.34-16.19c4.66,4.54,10.07,8.11,16.09,10.6h0ZM161.73,93.19c-.5.71-1.35,1.65-1.82,2.04-.42-1.56.05-4.14,1.24-6.62,1.38-2.9,4.51-4.49,5.71-5.01.35,1.26,1.08,4.69-.31,7.59-1.16,2.42-2.84,4.4-4.3,5.08-.02-.6.14-1.86.37-2.66l-.89-.42ZM170.61,74.8c.17-.86.59-1.66,1.2-2.29.44.75.67,1.62.63,2.5-.03.66-.23,1.29-.56,1.81-.02-.13-.04-.27-.04-.38l-.98-.12c-.03.11-.08.24-.12.36-.21-.6-.25-1.25-.12-1.89h-.01ZM169.51,37.07c1.92.77,4.16,3.37,5.68,6.63,1.78,3.82.71,8.32.27,9.79-1.41-.61-5.55-2.67-7.34-6.49-1.51-3.23-2.06-6.52-1.46-8.52.58.38,1.8,1.67,2.47,2.63l.89-.42c-.33-1.17-.56-2.91-.52-3.62h.01ZM179.09,26.97c-.69.16-1.73.27-2.27.27.67-1.24,2.44-2.6,4.6-3.51,2.54-1.07,5.44-.34,6.58.02-.53,1.07-2.04,3.66-4.58,4.73-2.12.9-4.33,1.22-5.68.85.36-.41,1.15-1.09,1.73-1.45l-.38-.91ZM168.28,6.86c6.46.85,12.92.47,19.23-1.13l-4.43,16.53c-.68.09-1.37.27-2.05.55-2.7,1.13-4.8,2.91-5.35,4.53-.07.21-.03.44.12.61.26.28.93.33,1.62.28-.49.46-.89.97-.86,1.35.02.24.16.44.38.53.56.24,1.27.36,2.07.36.59,0,1.24-.08,1.92-.21l-4.08,15.23c-.17-.74-.41-1.49-.75-2.22-1.75-3.75-4.36-6.6-6.63-7.28h0c-.24-.07-.48,0-.65.16-.42.41-.33,1.67-.16,2.8-.75-.82-1.68-1.65-2.26-1.58-.26.03-.47.19-.56.44-.85,2.2-.31,5.97,1.39,9.6,1.75,3.75,5.46,5.88,7.31,6.75l-7.59,28.32c-.59.21-4.88,1.9-6.7,5.69-1.43,2.98-1.88,6.05-1.13,7.82l.13.31h.15c.07.04.16.07.24.08.46.05,1.09-.5,1.66-1.1-.09.8-.08,1.62.25,1.94.12.12.28.18.44.18.07,0,.14-.01.21-.03.28-.09.57-.24.86-.41l-8.9,33.23c-1.34-.32-2.73-.51-4.15-.55v-64.45c.4.45.85.87,1.37,1.21,1.23.78,2.65,1.21,4.09,1.25l-.23.16c-.15.1-.25.31-.31.55-.17-.17-.35-.29-.53-.3h-.43l-.14.34c-.54,1.29-.58,2.73-.14,4.06.51,1.49,1.54,2.75,2.88,3.57l.44.26.25-.45c.78-1.37,1.05-2.97.78-4.52-.25-1.41-1.02-2.66-2.16-3.52l-.15.13.08-.17-.3-.12c.39.01.79-.01,1.19-.06l.51-.07-.08-.51c-.29-1.85-1.22-3.55-2.65-4.8-1.59-1.19-3.28-1.8-4.47-1.65v-16.9c.32-.27.61-.56.86-.9l.3-.41-.42-.29c-.24-.16-.49-.3-.74-.43V.78c5.67,3.18,11.82,5.23,18.28,6.07h-.01ZM176.63,27.65h0ZM155.84,69.12c.63.66,1.05,1.48,1.21,2.4.21,1.14.06,2.32-.42,3.36-.92-.69-1.63-1.64-2-2.73-.3-.88-.33-1.82-.12-2.68.14.21.29.47.38.68l.96-.25c-.02-.24-.02-.53,0-.78h0ZM130.72,6.86c6.46-.84,12.6-2.89,18.28-6.07v40.5c-.58-.15-1.18-.2-1.78-.15-1.13.1-2.18.62-2.95,1.46l-.21.37.14.26c.06.11.17.2.31.26-.1.11-.17.23-.19.35l-.03.4.31.17c.66.35,1.4.53,2.14.53.36,0,.72-.04,1.08-.13.41-.1.8-.27,1.17-.46v17.49c-.1.02-.19.03-.26.08l-.33.29.1.34c.12.43.29.84.5,1.24v65.87c-1.43.04-2.82.22-4.15.55L111.49,5.73c6.31,1.6,12.77,1.99,19.23,1.13ZM94.44,16.58c6.02-2.49,11.43-6.05,16.09-10.59l13.13,48.99c-.46-.94-1.11-1.91-1.94-2.84-2.4-2.68-6.41-2.92-6.58-2.92l-.49-.03-.03.49c-.01.17-.23,4.18,2.17,6.86,1.79,2,3.95,3.29,5.52,3.29h.01c.22,0,.42-.12.53-.31.16-.3.03-.85-.19-1.4.52.26,1.04.43,1.36.29.21-.09.35-.29.37-.52v-.23l19.51,72.8c-1.36.4-2.66.93-3.88,1.6l-35.23-61.02c1.03-.67,2.09-1.6,3.05-2.75,2.56-3.06,2.18-7.5,2.16-7.69l-.05-.49-.49.04c-.19.02-4.63.41-7.19,3.47-.37.44-.69.88-.99,1.33l-25.68-44.48c6.51-.08,12.85-1.38,18.87-3.88h-.03ZM121.83,58.79c-1.25-.24-2.9-1.34-4.3-2.91-1.64-1.84-1.89-4.49-1.92-5.61,1.11.15,3.71.7,5.36,2.54,1.37,1.53,2.28,3.29,2.4,4.55-.46-.2-1.2-.64-1.69-1.03l-.74.66c.33.52.71,1.31.88,1.8h.01ZM103.18,68.92l-.76-.63c-.56.48-1.44,1.06-1.95,1.31.02-1.43,1-3.51,2.54-5.35,1.81-2.16,4.8-2.85,5.99-3.05.01,1.21-.15,4.27-1.96,6.43-1.52,1.8-3.37,3.12-4.77,3.42.13-.54.54-1.53.9-2.14h0ZM80.18,39c1.81.21,4.31,1.84,6.38,4.18,2.43,2.74,2.67,6.75,2.68,8.17-1.41-.18-5.35-.91-7.78-3.66-2.06-2.33-3.35-4.94-3.37-6.77.61.21,1.91.96,2.67,1.59l.74-.65c-.54-.87-1.15-2.21-1.32-2.85h0ZM61.91,35.36c5.17-3.96,9.47-8.81,12.79-14.4l12.21,21.15c-2.29-2.44-4.94-4.03-6.94-4.13h-.19c-.24,0-.45.12-.56.32-.24.44.09,1.42.49,2.3-.82-.48-1.73-.88-2.21-.68-.23.1-.38.31-.4.56-.17,2.1,1.24,5.19,3.61,7.86,3.26,3.68,8.75,4.03,8.99,4.05l.49.03.03-.49c0-.15.15-2.59-.68-5.28l11.12,19.26c-.88,1.58-1.32,3.13-1.15,4.28.03.23.18.41.39.49.37.14,1-.14,1.61-.51-.23.65-.37,1.31-.16,1.64.12.19.32.3.54.3h.04c.6-.04,1.27-.25,1.97-.6l35.25,61.05c-1.2.73-2.31,1.59-3.32,2.55l-45.72-45.72c-.51-2.4-1.43-4.14-1.5-4.26l-.24-.44-.44.23c-.07.04-.63.34-1.41.88l-41.83-41.83c6.26-1.76,12.06-4.66,17.22-8.63v.02ZM83.6,98.73c-.51,1.04-1.45,2.42-1.94,2.91-.87-1.79-.8-5.08.2-8.38,1.17-3.86,4.81-6.39,6.08-7.18.62,1.36,2.25,5.48,1.07,9.35-.99,3.27-2.7,5.98-4.4,7.03-.17-.66-.22-2.35-.07-3.45l-.94-.29h0ZM35.36,61.91c3.97-5.16,6.87-10.96,8.63-17.22l41.72,41.72c-1.7,1.34-3.89,3.54-4.8,6.55-1.16,3.81-1.13,7.54.07,9.5l.08.11c.13.14.3.23.51.21.56-.02,1.3-.96,1.9-1.87.02,1.06.15,2.21.61,2.54.12.08.25.12.39.12.11,0,.21-.03.32-.08,2.03-1.03,4.07-4.09,5.19-7.79.48-1.58.54-3.18.39-4.64l44.75,44.75c-.96,1.01-1.82,2.13-2.55,3.32l-43.79-25.28s.08.05.13.06c.18.02.38.04.57.04,1.99,0,4.72-1.19,7.16-3.14,3.69-2.96,4.29-8.23,4.31-8.46l.05-.49-.49-.06c-.22-.03-5.5-.59-9.19,2.37-2.77,2.21-4.63,4.97-4.73,7.02l-.03.52h.26s.05.04.07.05c.41.25,1.34,0,2.2-.34-.49.76-.9,1.6-.72,2.06.03.09.1.16.17.23l-34.95-20.18c.84-1.05,1.35-2.33,1.4-3.68.06-1.74-.49-3.45-1.55-4.83l-.31-.4-.4.32c-1.35,1.1-2.27,2.64-2.6,4.35-.15.75-.14,1.5-.02,2.24l-29.16-16.83c5.59-3.33,10.44-7.63,14.4-12.8h.01ZM90.41,109.72c-.84.47-2.15,1-2.78,1.13.3-1.72,1.97-4.03,4.31-5.9,2.73-2.18,6.55-2.25,7.93-2.19-.24,1.36-1.13,5.07-3.86,7.27-2.28,1.83-4.87,2.96-6.62,2.92.24-.58,1.01-1.77,1.63-2.46l-.62-.77h.01ZM51.12,89.5c.25-1.3.9-2.49,1.85-3.41.72,1.1,1.08,2.41,1.03,3.74-.05,1.09-.42,2.13-1.03,2.96-.07-.31-.14-.69-.15-.99l-.98-.11c-.09.3-.22.65-.35.94-.44-.97-.56-2.06-.36-3.12h0ZM16.58,94.44c2.5-6.01,3.8-12.36,3.88-18.87l30.09,17.38c.12.28.25.56.41.83l.32.31.29-.07c.13-.03.26-.13.38-.27l80.1,46.25c-.67,1.22-1.2,2.52-1.6,3.88l-98.65-26.43c.37-.72.6-1.52.61-2.34.02-1.14-.38-2.23-1.14-3.08l-.34-.25-.27.11c-.12.05-.21.15-.29.27-.1-.11-.2-.18-.32-.22l-.4-.07-.2.3c-.62.92-.88,2.04-.74,3.15.07.49.22.96.41,1.41l-23.14-6.2c4.54-4.66,8.11-10.07,10.6-16.09h0ZM45.96,124.62c.42-.06,1.01-.09,1.43-.08-.55.7-1.7,1.52-3.37,2.07-1.56.38-3.2.27-4.67-.33.83-1.36,2.08-2.43,3.55-3.05,1.25-.51,2.62-.61,3.87-.32-.31.26-.76.58-1.13.77l.31.94h.01ZM29.9,113.44c.04.1.07.21.09.3l.98-.06c.01-.09.03-.2.05-.3.27.52.41,1.1.4,1.7-.02.83-.27,1.64-.73,2.32-.53-.63-.88-1.4-.99-2.22-.08-.6,0-1.21.2-1.74ZM6.86,130.72c.86-6.46.47-12.92-1.13-19.23l24.13,6.47c.17.2.34.4.53.58l.38.35.34-.39c.05-.05.08-.12.13-.17l13.07,3.5c-.61.09-1.2.24-1.78.48-1.86.78-3.39,2.19-4.32,3.97l-.24.46.46.22c1.18.57,2.46.87,3.77.87.7,0,1.41-.09,2.11-.26,2.1-.69,3.78-1.91,4.29-3.1h0l.11-.35-.18-.23c-.16-.21-.53-.3-.94-.34.24-.23.43-.47.48-.7l82.13,22.01c-.32,1.34-.51,2.73-.55,4.15h-55.6c.74-.89,1.25-1.96,1.46-3.11l.09-.5-.51-.08c-1.58-.25-3.2.06-4.57.88-1.09.65-1.9,1.64-2.36,2.81h-26.26c.69-1.06,1.09-2.29,1.15-3.57l.02-.51h-.51c-1.69-.05-3.34.51-4.66,1.56-.84.67-1.47,1.54-1.86,2.52H.78c3.18-5.68,5.23-11.82,6.07-18.28h0ZM70.51,149.59l-.57-.8c-.22.11-.5.21-.76.3.4-.84,1.04-1.55,1.85-2.03,1.02-.61,2.19-.89,3.37-.81-.32,1.13-.98,2.15-1.89,2.9-.74.6-1.63.97-2.52,1.08.16-.21.35-.45.52-.62v-.02ZM38.33,150.01l-.67-.72c-.24.16-.54.32-.81.45.29-.97.87-1.83,1.68-2.47.99-.79,2.21-1.26,3.47-1.34-.17,1.25-.72,2.43-1.58,3.37-.71.76-1.62,1.29-2.58,1.52.14-.27.33-.58.49-.79v-.02ZM6.86,168.28c-.85-6.46-2.89-12.6-6.07-18.28h34.98v.02l-.07.03.05.69.26.14c.18.09.44.07.72,0-.09.26-.11.51-.03.7l.22.38.36-.04c1.47-.15,2.83-.83,3.85-1.9h26.92l.14.1c.15.11.39.13.65.09-.1.23-.15.45-.1.63l.16.39h.36c.07,0,.13.02.2.02,1.29,0,2.54-.44,3.56-1.23h56.64c.04,1.43.22,2.82.55,4.15l-65.01,17.42c-.58-.19-1.18-.32-1.8-.34h-.4l-.14.38c-.06.15-.02.36.06.57l-16.96,4.54c2.02-3.39,1.11-7.65,1.07-7.83l-.11-.48-.48.1c-.19.04-4.63,1.02-6.82,4.44-1.35,2.11-2.09,4.34-2.04,6.02l-31.85,8.53c1.6-6.31,1.99-12.77,1.13-19.23h0ZM64.03,173.85l.63-.76c-.19-.21-.41-.52-.57-.79,1.03.17,1.99.65,2.75,1.39.94.9,1.57,2.08,1.82,3.35-1.29,0-2.56-.41-3.63-1.15-.87-.62-1.53-1.49-1.88-2.43.29.1.63.25.89.4h-.01ZM41.23,178.2l-.83-.53c-.51.56-1.33,1.27-1.82,1.59-.17-1.46.55-3.69,1.88-5.77,1.55-2.43,4.5-3.51,5.68-3.87.17,1.22.41,4.35-1.14,6.78-1.3,2.03-3.01,3.61-4.4,4.09.06-.56.35-1.63.63-2.3h0ZM16.58,204.56c-2.49-6.02-6.05-11.43-10.59-16.09l31.72-8.5c.06.21.23.37.45.42.39.1,1-.29,1.57-.74-.15.69-.21,1.39.05,1.71.12.15.3.23.49.23.04,0,.09,0,.13,0,1.46-.29,3.23-1.66,4.71-3.6l17.02-4.56c.4,1.31,1.2,2.47,2.33,3.27,1.24.87,2.72,1.34,4.22,1.34.2,0,.4,0,.6-.03l.51-.04-.05-.51c-.18-1.7-.96-3.3-2.2-4.49-.29-.28-.6-.52-.93-.74l63.84-17.11c.4,1.36.93,2.66,1.6,3.88l-66.59,38.45c.06-.18.14-.35.18-.53.34-1.4.18-2.88-.46-4.17l-.23-.46-.45.24c-1.27.67-2.28,1.77-2.83,3.1-.49,1.18-.52,2.48-.1,3.68l.17.29-17.3,9.99c-.17-.49-.37-.97-.64-1.41l-.27-.44-.43.28c-1.41.91-2.47,2.3-2.97,3.9-.02.05-.02.11-.04.17l-19.65,11.35c-.08-6.5-1.38-12.85-3.88-18.86h.02ZM62.65,197.78c-.08.16-.19.34-.31.5-.13-.77-.04-1.55.26-2.28.39-.95,1.06-1.75,1.9-2.32.35.96.41,2,.17,2.99-.19.78-.6,1.48-1.13,2.01,0-.2,0-.42.04-.59l-.94-.31h.01ZM41.51,214.37c-.11.26-.27.57-.42.83-.3-.97-.3-2.01,0-2.99.38-1.21,1.12-2.28,2.12-3.05.56,1.13.77,2.41.58,3.67-.16,1.02-.62,1.97-1.28,2.69-.03-.3-.05-.65-.04-.92l-.96-.22h0ZM35.36,237.09c-3.96-5.17-8.81-9.47-14.4-12.79l18.94-10.94c-.06,1.01.11,2.02.56,2.95l.28.34.29-.03c.2-.02.4-.19.59-.41.08.27.19.49.37.59l.39.18.27-.23c1.15-.96,1.9-2.3,2.13-3.78.12-.8.09-1.62-.06-2.41l18.26-10.54.25.15.29-.2c.32-.22.59-.48.85-.76l68.18-39.37c.73,1.2,1.59,2.31,2.55,3.32l-47.82,47.82c-.67-1.07-1.58-2-2.67-2.71-1.97-1.08-4.06-1.5-5.31-1.05l-.33.17-.05.29c-.04.27.15.61.42.95-.42-.03-.8,0-1,.19-.17.15-.23.38-.17.6.35,1.29,1.77,2.75,3.75,3.83.77.35,1.57.57,2.4.68l-10.57,10.57c-.25-.83-.62-1.67-1.14-2.45-1.8-2.65-4.16-4.52-5.99-4.76-.23-.02-.45.06-.59.25-.25.34-.13,1.13.09,1.88-.62-.45-1.29-.82-1.71-.71-.23.07-.4.25-.45.49-.39,1.8.49,4.63,2.23,7.2.8,1.18,1.86,2.07,2.93,2.73l-25.14,25.14c-1.77-6.26-4.66-12.05-8.63-17.22v.04ZM82.39,212.38c-1.58-.87-2.6-1.92-3.04-2.72.41.05,1.01.17,1.43.32l.48-.86c-.35-.27-.79-.71-1.08-1.03.92-.09,2.34.2,3.93,1.07,1.38.9,2.44,2.22,3.02,3.75-1.61.33-3.28.15-4.75-.52h.01ZM67.03,225.87c-1.44-2.13-2.27-4.48-2.14-6.03.52.29,1.46,1.02,2.01,1.59l.82-.55c-.34-.74-.7-1.88-.8-2.48,1.5.42,3.4,2.06,4.88,4.24,1.73,2.55,1.54,5.91,1.39,7.18-1.23-.33-4.42-1.39-6.15-3.95h0ZM44.7,255.01l25.33-25.33c1.78.92,3.36,1.23,3.48,1.25l.49.09.1-.49c.03-.13.45-2.36-.04-4.88l11.61-11.61c.76,0,1.52-.11,2.26-.31l.49-.14-.15-.49c-.13-.41-.29-.81-.47-1.19l48.03-48.03c1.01.96,2.13,1.82,3.33,2.55l-38.66,66.95c-.87-.7-1.96-1.34-3.22-1.63-2.58-.59-5.06-.4-6.31.49h0c-.18.13-.27.34-.25.56.04.33.45.7.93,1.01-.55.09-1.06.25-1.23.54-.12.2-.12.44,0,.64.79,1.33,2.87,2.53,5.4,3.11.55.13,1.1.18,1.63.18.08,0,.15,0,.23,0l-11.12,19.26c-.41-.36-.71-.58-.75-.61l-.4-.29-.29.4c-.1.14-2.28,3.2-2.17,6.76l-8.22,14.23c-6.73-11.3-17.35-19.46-30.01-23.03l-.02.02ZM96.03,237.14c-1.96-.45-3.68-1.34-4.5-2.28.48-.1,1.32-.17,1.92-.13l.22-.96c-.55-.23-1.3-.65-1.72-.94,1.14-.51,3.09-.56,5.09-.1,2.35.54,4.05,2.52,4.71,3.41-.98.51-3.38,1.54-5.73,1h.01ZM89.26,263.81c.38,2.35.17,4.64-.52,5.91-.33-.46-.82-1.42-1.05-2.1l-.97.16c0,.74-.14,1.81-.28,2.36-1.09-.96-2.04-3.07-2.43-5.47-.46-2.81.98-5.56,1.61-6.6.94.79,3.18,2.93,3.64,5.74h0ZM75.58,278.54l7.56-13.1c.55,2.7,1.74,4.95,3.11,5.82h0c.1.06.22.1.33.1.1,0,.2-.03.3-.08.35-.19.55-.87.67-1.57.34.61.76,1.15,1.15,1.21.24.04.46-.05.61-.25,1.06-1.41,1.41-4.1.93-7.02-.39-2.35-1.82-4.23-2.96-5.4l11.6-20.09c2.13-.36,3.77-1.36,3.87-1.43l.42-.26-.26-.42c-.05-.07-.63-1-1.65-1.99l38.74-67.11c1.22.67,2.52,1.2,3.87,1.6l-33.35,124.46c-9.42-9.17-21.8-14.3-34.95-14.48h.01ZM111.49,293.27l33.35-124.47c1.34.32,2.73.51,4.15.55v91.87c-1.97,2.2-3.13,4.68-2.97,6.4h0c.02.23.16.42.37.51.38.16,1.07-.11,1.73-.47-.29.67-.48,1.37-.28,1.73.11.21.32.33.56.33h0c.19,0,.38-.03.58-.06v1.72c-1.51-.52-2.9-.7-3.99-.48-.24.05-.42.21-.5.44-.17.53.45,1.54,1.1,2.41-1-.34-2.12-.61-2.58-.29-.21.15-.32.39-.28.65.28,2.25,2.45,5.2,5.53,7.51.23.18.48.32.72.47v16.1c-11.48-6.42-24.76-8.17-37.51-4.94l.02.02ZM148.88,280.84c-2.73-2.04-4.68-4.55-5.09-6.51.67.07,2.27.59,3.25,1.1l.59-.79c-.79-.83-1.77-2.17-2.06-2.8,1.97-.19,5.02.98,7.76,3.03,3.22,2.41,4.35,6.67,4.66,8.13-1.49.12-5.9.24-9.11-2.17h0ZM150,298.21v-15.55c2.35,1.14,4.87,1.4,6.59,1.4,1.18,0,1.97-.11,2.06-.13l.49-.07-.07-.49c-.03-.25-.9-6.13-5.14-9.3-1.29-.97-2.64-1.73-3.93-2.29v-2.37c1.51-.53,3.2-1.71,4.72-3.33,2.82-3.02,2.68-7.65,2.67-7.85l-.02-.49h-.5c-.18.02-4.05.17-6.87,2.5v-90.89c1.43-.04,2.82-.22,4.15-.55l33.35,124.47c-12.75-3.23-26.03-1.48-37.51,4.94h0ZM188.47,293.02l-33.35-124.46c1.36-.4,2.66-.93,3.88-1.6l64.43,111.6c-13.15.17-25.53,5.3-34.96,14.47h0ZM224.29,278.04l-64.44-111.61c1.2-.73,2.31-1.59,3.32-2.55l91.13,91.13c-12.66,3.57-23.29,11.73-30.01,23.03ZM255.01,254.3l-91.13-91.12c.96-1.01,1.81-2.13,2.55-3.32l6.26,3.61.02.2c0,.13.09.26.2.38-.14.06-.26.15-.33.26l-.19.37.23.28c.74.89,1.77,1.48,2.92,1.66.28.04.56.06.84.06.51,0,1.02-.07,1.51-.21l100.14,57.82c-11.3,6.73-19.46,17.36-23.03,30.01h.01ZM175.7,165.63c-.65-.1-1.25-.37-1.74-.75h.39l.22-.96c-.11-.04-.23-.1-.35-.17.62-.14,1.27-.11,1.89.09.84.27,1.58.77,2.14,1.45-.8.36-1.69.49-2.55.35h0ZM278.54,223.43l-99.48-57.43c.06-.04.13-.06.19-.1l.44-.26-.27-.43c-.7-1.09-1.76-1.91-3-2.31-.9-.29-1.85-.28-2.75,0l-6.72-3.88c.67-1.22,1.2-2.52,1.6-3.88l124.47,33.35c-9.17,9.42-14.3,21.8-14.48,34.95h0ZM293.28,187.51l-124.47-33.36c.32-1.34.51-2.72.55-4.15h30.8c-.5,1.25-.7,2.43-.52,3.33.04.22.2.39.41.46.35.11.92-.17,1.46-.53-.17.61-.26,1.21-.04,1.52.12.17.31.27.51.27h.08c1.65-.2,3.72-1.71,5.39-3.94.27-.35.49-.72.68-1.1h90.08c-6.42,11.48-8.17,24.76-4.94,37.51h0ZM225.16,82.84c-1.03-.56-2.23-.7-3.37-.4l.06.31-.13-.28-.3.17-.02.29c0,.13.04.27.12.41-.15.04-.27.1-.36.19l-.25.33.17.31c.56,1,1.46,1.77,2.54,2.16.59.21,1.21.31,1.83.31s1.3-.12,1.92-.35l.48-.18-.19-.48c-.48-1.19-1.37-2.19-2.5-2.8h0ZM223.95,85.38c-.61-.22-1.14-.59-1.55-1.04.13.02.26.04.36.07l.4-.9c-.09-.06-.2-.14-.3-.22.63-.02,1.25.13,1.81.43.77.41,1.39,1.04,1.81,1.79-.84.2-1.72.16-2.54-.13h.01ZM166.8,268.85c-2.12,2.03-3.44,4.45-3.38,6.16,0,.23.13.42.34.53.34.17.99-.03,1.62-.32-.29.61-.49,1.23-.32,1.58.1.21.31.35.55.36h.14c1.69,0,4.03-1.22,6.03-3.13,2.84-2.72,2.94-7.12,2.94-7.3v-.5h-.49c-.18-.01-4.58-.1-7.42,2.63h0ZM164.42,274.97l-.5.02.5-.02h0ZM171.07,273.3c-1.66,1.6-3.61,2.69-5.01,2.84.19-.5.66-1.4,1.1-1.98l-.68-.71c-.59.4-1.51.88-2.03,1.07.18-1.4,1.35-3.31,3.05-4.95,1.99-1.92,4.98-2.28,6.18-2.35-.12,1.19-.6,4.15-2.6,6.07h-.01ZM179.46,270c-1.1-.04-2.18.31-3.04.98-.79.61-1.32,1.49-1.49,2.48l-.1.58h.69c0,.12,0,.23.04.33l.19.36.36-.03c.98-.08,1.89-.52,2.57-1.23.75-.8,1.21-1.84,1.28-2.93l.03-.51-.51-.02h-.02ZM177.94,272.78c-.31.32-.67.57-1.06.73,0-.02.02-.03.03-.04l-.71-.69c.2-.38.48-.72.83-.99.53-.41,1.17-.67,1.84-.75-.14.66-.46,1.26-.93,1.75h0ZM241.99,87.16c-.9-.73-2.03-1.08-3.19-1.01l-.41.12-.08.28c-.03.12,0,.27.04.42-.15,0-.28.04-.38.12l-.31.27.11.34c.36,1.08,1.09,1.98,2.07,2.56.83.48,1.77.73,2.73.73.31,0,.61-.03.92-.08l.5-.09-.1-.5c-.25-1.25-.93-2.37-1.91-3.17h.01ZM240.36,89.4c-.54-.32-.99-.77-1.3-1.28.12.04.23.08.32.13l.56-.81c-.08-.07-.16-.16-.23-.25.6.1,1.17.35,1.65.75.66.54,1.16,1.25,1.42,2.06-.86.03-1.69-.17-2.43-.59h0ZM55.4,147.18l.49.07.07-.49c.03-.2.72-5.02-1.89-8.5-1.95-2.61-4.42-4.4-6.3-4.55-.23-.03-.45.08-.58.27-.24.36-.07,1.16.19,1.93-.66-.44-1.37-.79-1.79-.65-.23.08-.39.27-.43.51-.31,1.84.72,4.67,2.6,7.2,2.6,3.48,7.42,4.19,7.62,4.22h.02ZM48.25,137.85l.79-.59c-.39-.75-.81-1.9-.93-2.49,1.54.35,3.56,1.93,5.17,4.09,1.88,2.52,1.84,5.95,1.75,7.24-1.26-.28-4.56-1.21-6.45-3.73-1.57-2.1-2.52-4.46-2.46-6.05.54.26,1.54.97,2.13,1.53ZM74.54,121.98l.45.25.24-.46c.84-1.63,1.09-3.52.68-5.35-.6-1.96-1.66-3.49-2.75-3.99h0l-.34-.11-.24.18c-.19.14-.29.44-.33.78-.23-.24-.48-.42-.71-.42l-.44.04-.12.34c-.56,1.53-.55,3.21.04,4.73.67,1.71,1.93,3.14,3.54,4.02h-.02ZM71.7,114.2c.21.28.46.65.61.95l.94-.29c-.05-.36-.06-.84-.05-1.2.6.53,1.28,1.56,1.73,3.01.31,1.39.18,2.85-.37,4.15-1.19-.78-2.11-1.91-2.63-3.23-.43-1.1-.5-2.31-.23-3.4h0ZM133.25,269.9h0c-.22-.11-.47-.09-.67.05-.46.32-.58,1.51-.59,2.6-.59-.89-1.32-1.78-1.9-1.81-.26,0-.49.12-.62.34-1.16,1.97-1.22,5.66-.17,9.4,1.45,5.14,6.67,8.08,6.9,8.2l.43.24.24-.43c.12-.22,3.04-5.45,1.58-10.6-1.09-3.86-3.13-7-5.21-8h0ZM133.03,270.35l-.22.45h.02-.02l.22-.45ZM136.24,287.55c-1.26-.82-4.87-3.43-5.98-7.33-.92-3.26-.94-6.54-.08-8.34.5.46,1.45,1.87,1.93,2.88l.95-.27c-.13-1.15-.09-2.83.06-3.51,1.71,1.04,3.43,3.87,4.37,7.2,1.1,3.9-.6,8.01-1.25,9.37h0ZM196.15,88.17c-1.37-.49-2.87-.44-4.2.14l-.35.26.02.29c0,.19.15.38.34.56-.24.07-.44.17-.55.32l-.2.38.22.28c.87,1.13,2.12,1.9,3.52,2.17.42.08.85.12,1.28.12,1.16,0,2.32-.3,3.35-.87l.45-.25-.26-.44c-.82-1.38-2.1-2.44-3.61-2.98v.02ZM195.14,91.6c-.95-.18-1.81-.64-2.46-1.27.27-.02.58-.02.83,0l.26-.95c-.22-.1-.49-.25-.72-.4.91-.23,1.87-.19,2.77.13,1.12.4,2.1,1.13,2.79,2.09-1.08.48-2.29.62-3.46.4h0ZM22.84,140.62c2.53,2.22,5.39,3.56,7.47,3.56.19,0,.37,0,.54-.03.24-.03.43-.18.52-.4.19-.47-.26-1.39-.77-2.21.87.37,1.82.65,2.27.39.22-.13.34-.35.33-.61-.1-2.1-1.89-4.97-4.57-7.31-3.69-3.22-9.17-2.87-9.4-2.85l-.49.04.03.49c.01.23.4,5.71,4.09,8.93h-.02ZM27.96,134.76c2.29,2.01,3.93,4.46,4.2,6.25-.63-.13-2.01-.71-2.84-1.22l-.65.74c.65.79,1.43,2.04,1.67,2.65-1.85,0-4.49-1.27-6.84-3.32-2.75-2.4-3.5-6.32-3.69-7.73,1.43,0,5.4.22,8.15,2.62h0ZM200.46,139.22c-1.13-.36-2.34-.27-3.41.23l.08.25-.14-.2-.27.22.03.29c0,.13.09.26.2.39-.14.06-.26.15-.33.26l-.19.37.23.28c.74.89,1.77,1.48,2.92,1.66.28.04.56.06.84.06,1,0,2-.27,2.87-.8l.44-.26-.27-.43c-.7-1.09-1.76-1.91-3-2.31h0ZM199.74,141.97c-.65-.1-1.25-.37-1.74-.75h.39l.22-.96c-.11-.04-.23-.1-.35-.17.62-.14,1.27-.11,1.89.09.84.27,1.58.77,2.14,1.45-.79.36-1.69.48-2.55.35h0ZM78.45,125.12c-.07.08-.12.17-.14.26l-.06.4.31.18c.6.35,1.27.54,1.95.54.24,0,.47-.02.71-.07,1.02-.2,1.95-.75,2.6-1.55l.32-.4-.4-.31c-.82-.64-1.84-.97-2.88-.93-.95.03-1.84.42-2.52,1.09l-.42.42.48.34s.03.02.04.03h0ZM80.9,124.24c.62-.02,1.23.12,1.76.42-.46.4-1.02.68-1.63.8-.39.07-.78.06-1.15-.02l-.16-.89c.36-.19.76-.29,1.17-.3h.01ZM21.15,165.7c-.83.92-1.68,2.04-1.54,2.68.06.26.25.46.5.53.52.14,1.1.21,1.74.21,2.39,0,5.5-.98,8.44-2.73,5.13-3.04,6.8-9.52,6.87-9.79l.12-.48-.48-.12c-.27-.07-6.76-1.72-11.89,1.33-3.85,2.28-6.65,5.38-7.14,7.91-.05.25.04.49.23.65.48.4,1.91.15,3.14-.17v-.02ZM25.43,158.17c3.98-2.36,9.03-1.64,10.62-1.33-.49,1.55-2.28,6.32-6.26,8.68-3.37,2-6.9,2.95-9.13,2.48.31-.65,1.61-2.16,2.61-3.01l-.5-.85c-1.27.49-3.19.94-3.93.95.61-2.18,3.2-4.91,6.59-6.92h0ZM47.95,163.07c1.3.77,2.78,1.17,4.27,1.17.44,0,.89-.04,1.33-.11l.51-.08-.09-.5c-.36-1.92-1.39-3.67-2.93-4.94-1.75-1.23-3.68-1.85-4.91-1.55l-.39.09-.04.32c-.07.24.06.58.27.91-.37-.06-.72-.06-.92.09l-.32.3.11.34c.53,1.65,1.63,3.05,3.12,3.95h-.01ZM47.22,159.84l.57-.81c-.28-.28-.64-.72-.87-1.05.86.03,2.15.45,3.53,1.42,1.19.98,2.04,2.32,2.43,3.81-1.53.13-3.08-.21-4.4-1-1.11-.67-1.97-1.67-2.47-2.8.37.09.87.26,1.21.43h0ZM243.28,109.39c-1.92-.88-4.09-1.07-6.16-.51-2.21.79-3.9,2.07-4.42,3.34l-.1.36.19.23c.18.22.58.31,1.04.33-.32.3-.56.62-.55.9,0,.23.13.42.33.53.53.27,1.23.4,2.04.4,1.03,0,2.22-.22,3.45-.65,1.93-.85,3.5-2.36,4.43-4.26l.23-.46-.46-.21h-.02ZM238.72,113.39c-1.76.63-3.27.69-4.19.46.32-.28.83-.67,1.24-.9l-.33-.93c-.45.08-1.1.12-1.55.12.55-.76,1.76-1.67,3.53-2.3,1.64-.44,3.38-.35,4.95.25-.84,1.46-2.13,2.63-3.65,3.3ZM37.84,111.23h-.02v.36c0,.23.13.42.33.53.33.17.95,0,1.55-.27-.28.58-.48,1.17-.32,1.51.1.21.3.35.54.36h.19c1.66,0,3.89-1.12,5.87-2.98,2.81-2.61,2.96-6.9,2.97-7.08v-.49l-.48-.02c-.18,0-4.47-.15-7.27,2.47-1.95,1.82-3.24,3.98-3.37,5.61h0ZM41.89,106.35c1.96-1.83,4.85-2.14,6.03-2.19-.13,1.17-.65,4.04-2.61,5.86-1.64,1.52-3.54,2.56-4.9,2.69.19-.49.66-1.34,1.09-1.89l-.67-.72c-.57.38-1.45.82-1.97,1.01.2-1.35,1.36-3.19,3.03-4.75h0ZM188.06,152.19c-2.32-1.1-4.71-1.42-6.08-.83l-.33.2-.03.29c-.03.32.27.74.65,1.13-.53-.03-1.02.03-1.25.26-.16.17-.21.4-.14.62.47,1.43,2.19,2.98,4.47,4.06,1.12.53,2.3.7,3.37.7,1.89,0,3.4-.54,3.5-.57l.47-.17-.17-.47c-.05-.15-1.36-3.76-4.46-5.22h0ZM185.78,157.02c-1.74-.82-3.18-2-3.76-3.05.48,0,1.26.12,1.81.27l.42-.89c-.46-.32-1.07-.86-1.41-1.22,1.17-.24,3,.12,4.79.96,2.09.99,3.29,3.19,3.74,4.17-1.04.28-3.5.75-5.59-.24ZM208.33,122.95c-.43-.17-1.26.23-2.01.7.32-.8.54-1.66.29-2.07-.13-.21-.34-.33-.6-.31-1.98.11-4.66,1.83-6.84,4.38-3,3.51-2.6,8.66-2.58,8.88l.04.49.49-.04c.22-.02,5.37-.43,8.36-3.94,2.05-2.41,3.28-5.11,3.26-7.06h.04l-.07-.52c-.03-.23-.18-.42-.4-.51h.02ZM204.73,130.39c-2.2,2.58-5.82,3.33-7.16,3.53,0-1.35.16-5.05,2.36-7.63,1.84-2.15,4.1-3.71,5.77-3.99-.13.61-.65,1.86-1.11,2.63l.75.64c.71-.59,1.83-1.31,2.41-1.57.02,1.69-1.16,4.19-3.03,6.39h0ZM66.42,164.47c-.03.1-.04.19-.03.28l.09.39.35.06c.2.03.41.05.61.05.7,0,1.4-.2,2-.58.87-.55,1.52-1.39,1.83-2.37l.16-.49-.49-.14c-.98-.29-2.04-.22-2.98.19-.86.37-1.54,1.05-1.92,1.92l-.23.54.57.14s.03,0,.04,0h0ZM68.36,162.77c.55-.24,1.16-.33,1.75-.26-.27.53-.69.99-1.19,1.31-.33.21-.7.34-1.06.4l-.46-.75c.26-.3.59-.54.96-.7ZM75.48,218.39l.51.08.07-.51c.25-1.9-.18-3.84-1.23-5.5-1.26-1.68-2.87-2.84-4.11-2.94h-.37l-.16.25c-.14.21-.12.55-.04.92-.32-.17-.64-.26-.87-.18l-.4.19v.36c-.01,1.7.59,3.35,1.71,4.63,1.26,1.44,3,2.4,4.9,2.7h0ZM70.88,212.45l.79-.59c-.18-.35-.37-.84-.49-1.22.79.3,1.85,1.08,2.83,2.38.81,1.27,1.19,2.77,1.11,4.27-1.46-.34-2.79-1.13-3.78-2.27-.83-.95-1.33-2.13-1.44-3.33.32.2.71.5.98.75h0ZM40.04,97.88l.45.25.24-.45c.81-1.53,1.07-3.31.71-5.01-.32-1.54-1.21-2.89-2.49-3.8l-.41-.16-.24.17c-.17.12-.27.39-.32.69-.21-.21-.43-.36-.64-.37l-.43.03-.13.33c-.55,1.44-.56,3.03-.02,4.48.61,1.62,1.79,2.99,3.3,3.84h-.02ZM37.48,90.56c.19.25.39.58.52.85l.95-.28c-.04-.3-.05-.68-.04-1,.78.73,1.32,1.68,1.54,2.74.27,1.3.14,2.65-.38,3.86-1.09-.74-1.93-1.8-2.4-3.04-.38-1.02-.44-2.12-.19-3.13ZM203.04,112.19c-1.42-.09-2.79.37-3.88,1.27l.27.33-.32-.28.05.05-.05-.04-.21.29.1.28c.06.17.24.31.46.43-.2.12-.35.27-.41.44l-.09.42.29.21c.98.71,2.15,1.1,3.36,1.1.17,0,.34,0,.51-.02,1.55-.15,3-.84,4.1-1.95l.36-.36-.37-.35c-1.13-1.07-2.61-1.7-4.17-1.79v-.03ZM203.03,115.65c-.91.08-1.82-.1-2.59-.5.24-.08.51-.16.73-.2l-.02-.99c-.22-.03-.49-.1-.74-.17.77-.45,1.65-.66,2.56-.61,1.14.07,2.23.48,3.13,1.17-.87.73-1.95,1.18-3.08,1.29h.01ZM194.47,165.3c-1.2-1.61-2.94-2.75-4.93-3.23-2.17-.34-4.23-.04-5.23.78h0l-.25.27.05.29c.05.26.33.51.68.73-.38.11-.71.27-.83.5-.1.2-.09.43.09.68,1.23,1.29,2.89,2.08,4.66,2.23.23.02.46.03.69.03,1.77,0,3.51-.55,4.96-1.57l.42-.3-.31-.41h0ZM188.79,166.56c-1.34-.12-2.6-.65-3.58-1.49.39-.08.94-.16,1.34-.16l.16-.97c-.4-.13-.94-.38-1.3-.58.81-.37,2.21-.57,3.93-.29,1.55.37,2.95,1.23,3.99,2.43-1.36.82-2.95,1.2-4.54,1.07h0ZM63.5,140.44c.21.18.62.19,1.07.13-.25.35-.43.71-.37.98.05.22.21.39.43.46.29.08.62.13.98.13,1.23,0,2.8-.49,4.34-1.38,1.73-1.19,2.99-2.96,3.55-4.98l.14-.49-.5-.12c-2.03-.51-4.19-.29-6.12.64-1.95,1.12-3.39,2.68-3.71,4.08h0v.09h0l-.02.28.22.19h0ZM67.49,136.68c1.52-.73,3.23-.96,4.89-.67-.56,1.58-1.6,2.96-2.96,3.89-1.61.94-3.08,1.27-4.01,1.22.26-.34.69-.81,1.04-1.1l-.5-.85c-.43.16-1.06.33-1.5.4.4-.85,1.41-1.96,3.03-2.9h.01ZM210.44,136.66c-1.34-.18-2.68.16-3.79.94l-.29.33.08.28c.05.16.19.3.38.43-.18.1-.33.23-.39.39l-.11.41.27.23c.98.83,2.23,1.29,3.52,1.29h.1c1.49-.04,2.92-.59,4.04-1.57l.39-.34-.35-.38c-1.01-1.09-2.38-1.8-3.85-1.99v-.02ZM210.19,139.94c-.84.02-1.67-.21-2.36-.62.21-.06.45-.11.64-.13l.05-.99c-.19-.04-.42-.11-.63-.19.75-.35,1.58-.49,2.42-.38,1.06.14,2.06.6,2.86,1.3-.87.62-1.91.97-2.98.99v.02ZM51.42,117.16c-.34.21-.61.46-.66.71-.04.22.03.44.21.58.78.64,2.14,1,3.73,1,.46,0,.94-.03,1.44-.09,1.97-.39,3.75-1.48,5.02-3.04l.32-.4-.41-.31c-1.6-1.22-3.59-1.83-5.64-1.75-2.19.26-4.08,1.12-4.76,2.12l-.23.4.13.26c.12.23.46.4.86.52h-.01ZM55.51,114.85c1.6-.08,3.18.37,4.52,1.24-1.08,1.17-2.51,1.97-4.05,2.28-1.74.21-3.13-.03-3.94-.42.35-.19.88-.43,1.3-.55l-.12-.98c-.42-.02-1.01-.11-1.42-.2.68-.58,1.97-1.16,3.71-1.37ZM209.82,259.11c-.17-.09-4.07-2.19-7.86-1.05-2.4.72-4.42,1.95-5.42,3.26l-.07-.1-.38.81c-.1.21-.07.44.06.62.04.06.1.11.17.15l.3.46.13-.28c.29.08.64.11,1,.13-.54.41-1.01.88-1.02,1.27,0,.24.11.45.32.57.76.43,1.82.65,3.05.65s2.55-.21,3.93-.62c3.79-1.13,5.9-5.03,5.99-5.2l.23-.44-.43-.24h0ZM203.74,264.03c-2.23.67-4.48.75-5.81.24.4-.37,1.24-.95,1.9-1.28l-.28-.95c-.71.09-1.76.09-2.32.03.8-1.17,2.74-2.36,5.01-3.04,2.67-.8,5.52.25,6.62.74-.65,1.01-2.45,3.46-5.13,4.26h.01ZM234.21,247.21c-.13-.13-3.24-3.07-7.09-3.03-2.88.05-5.44.91-6.53,2.19-.15.17-.19.4-.11.61.13.35.71.63,1.35.84-.6.24-1.14.56-1.25.92-.07.23,0,.46.16.63,1.15,1.15,3.52,1.85,6.23,1.85h.29c3.85-.08,6.84-3.18,6.97-3.31l.34-.36-.35-.34h0ZM227.24,250.22c-2.27.06-4.36-.46-5.47-1.27.47-.24,1.39-.56,2.09-.69l-.02-.99c-.68-.1-1.65-.36-2.16-.57,1.06-.88,3.16-1.48,5.46-1.52,2.68-.07,5.07,1.65,5.98,2.4-.88.79-3.18,2.58-5.88,2.64h0ZM87.86,240l.42.3.29-.42c1.04-1.54,1.51-3.42,1.32-5.31-.37-2.01-1.27-3.71-2.3-4.34l-.33-.16-.26.15c-.21.12-.34.41-.43.76-.21-.27-.44-.49-.67-.52h-.44l-.16.31c-.75,1.47-.93,3.17-.52,4.77.47,1.8,1.57,3.39,3.09,4.47h0ZM85.92,231.8c.18.31.39.72.51,1.05l.97-.18c0-.38.04-.87.1-1.23.55.6,1.12,1.73,1.4,3.26.15,1.44-.16,2.9-.87,4.16-1.11-.93-1.91-2.18-2.28-3.58-.3-1.17-.23-2.4.18-3.47h-.01ZM196.64,78.23c-2.58.35-4.79,1.39-5.63,2.65h0c-.12.18-.13.41-.03.6.15.29.64.48,1.19.61-.47.27-.87.59-.93.91-.04.23.04.45.22.6.9.72,2.45,1.11,4.24,1.11.58,0,1.18-.04,1.8-.12,3.44-.47,5.8-3.55,5.9-3.68l.3-.4-.39-.3c-.13-.1-3.22-2.45-6.67-1.98h0ZM191.84,81.43h0s0-.01,0-.02c0,0,0,.01,0,.02ZM197.37,83.59c-1.94.26-3.82.05-4.89-.52.41-.25,1.14-.6,1.7-.78l-.13-.98c-.58-.02-1.4-.14-1.88-.26.87-.85,2.63-1.57,4.62-1.84,2.33-.32,4.57.9,5.49,1.48-.73.81-2.56,2.57-4.9,2.89h0ZM34.64,192.67l.46.23.22-.46c.74-1.54.91-3.3.49-4.96-.38-1.5-1.31-2.79-2.61-3.63l-.42-.15-.23.18c-.16.13-.25.38-.29.68-.21-.19-.43-.33-.64-.33h0l-.43.05-.11.34c-.48,1.44-.42,3,.17,4.4.67,1.57,1.88,2.86,3.41,3.64h-.02ZM31.82,185.6c.19.24.4.55.54.8l.93-.32c-.05-.29-.07-.66-.08-.96.79.68,1.35,1.58,1.61,2.61.32,1.25.25,2.58-.21,3.79-1.1-.68-1.96-1.69-2.47-2.88-.41-.98-.52-2.05-.33-3.04h.01ZM81.23,64.7c.63.29,1.32.43,2.01.43.44,0,.87-.06,1.3-.18l.49-.14-.15-.49c-.33-1.09-1.04-2.03-1.99-2.65-.87-.57-1.91-.78-2.93-.61l-.39.16-.05.29c-.02.1,0,.22.05.33-.11.03-.21.07-.28.14l-.28.3.15.33c.41.93,1.15,1.67,2.08,2.1h-.01ZM80.64,62.97l.47-.87s-.06-.05-.09-.08c.47.06.92.22,1.32.48.6.39,1.08.95,1.38,1.59-.71.09-1.43-.02-2.08-.31-.45-.2-.83-.51-1.13-.86.05,0,.09.03.13.04h0ZM80.45,256.89c.1.03.2.03.31.01,0,.1.04.2.09.28l.25.32.35-.09c.96-.25,1.79-.84,2.34-1.66.61-.92.89-2.03.77-3.13l-.05-.51-.51.07c-1.1.14-2.11.67-2.86,1.49-.68.74-1.06,1.71-1.05,2.72l.09.41.28.09h0ZM81.87,254.34c.47-.51,1.06-.87,1.71-1.06-.03.68-.24,1.34-.62,1.91-.25.38-.58.69-.95.91.01-.02.02-.05.03-.07l-.78-.61-.05.05c.13-.42.35-.81.65-1.14h.01ZM62.41,243.44c.07.21.24.36.46.41.33.07.82-.24,1.29-.63-.09.58-.09,1.13.15,1.39.12.14.28.21.46.21.05,0,.1,0,.15-.02,1.54-.38,3.33-2.04,4.66-4.34,1.81-3.13.78-7.04.74-7.21l-.13-.48-.48.12c-.17.04-4.07,1.09-5.88,4.22-1.35,2.34-1.9,4.82-1.41,6.31h0v.02ZM64.69,237.62c1.24-2.15,3.71-3.22,4.77-3.6.2,1.11.5,3.78-.75,5.93-1.04,1.79-2.43,3.22-3.61,3.73.05-.5.23-1.35.45-1.94l-.85-.49c-.39.48-1.04,1.09-1.45,1.41-.16-1.27.38-3.2,1.43-5.03h.01ZM81.25,76.92l.51.07.05-.51c.22-2.08-.3-4.18-1.48-5.95-1.41-1.8-3.2-3.02-4.55-3.1l-.38.02-.16.25c-.15.23-.1.64.02,1.07-.38-.2-.76-.32-1.02-.22-.21.08-.36.26-.39.48-.19,1.34.56,3.27,1.98,5.08,1.42,1.54,3.34,2.54,5.41,2.81h0ZM76.07,70.56l.77-.61c-.22-.4-.47-1-.6-1.42.89.28,2.13,1.12,3.28,2.58.94,1.4,1.4,3.06,1.34,4.73-1.64-.33-3.14-1.17-4.26-2.38-1.15-1.46-1.68-2.85-1.76-3.78.37.21.89.57,1.23.88ZM137.55,65.47c-3-1.11-5.99-1.26-7.62-.39l-.67.36.35.28c.07.41.59.93,1.16,1.39-.77,0-1.53.08-1.8.42-.15.19-.18.44-.08.66.73,1.68,3.08,3.46,5.99,4.54,1.08.4,2.18.54,3.22.54,2.82,0,5.17-1.08,5.31-1.14l.45-.21-.21-.45c-.08-.18-2.09-4.52-6.09-6h-.01ZM135.22,71.78c-2.41-.89-4.44-2.32-5.23-3.65.58-.07,1.78-.02,2.55.13l.34-.93c-.71-.41-1.67-1.12-2.09-1.55,1.46-.52,3.95-.3,6.41.62,2.88,1.06,4.67,3.89,5.29,5.01-1.19.45-4.39,1.43-7.28.37h0ZM153.65,26.57c-.35.43-.61.88-.54,1.21.04.23.2.4.43.47.36.11.77.16,1.21.16,1.39,0,3.13-.52,4.84-1.48,3.07-1.71,4.14-5.49,4.19-5.65l.13-.48-.48-.14c-.16-.05-3.94-1.11-7.01.61-2.29,1.28-3.99,3.08-4.31,4.58-.05.22.02.43.19.58.25.22.79.22,1.35.13h0ZM156.91,22.16c2.08-1.17,4.66-.85,5.73-.64-.38,1.03-1.46,3.38-3.54,4.55-1.74.97-3.59,1.47-4.82,1.32.29-.39.85-1,1.32-1.37l-.48-.86c-.55.2-1.38.39-1.88.45.44-1,1.66-2.34,3.67-3.46h0ZM54.3,227.88l-.37.35c-1.36,1.28-2.22,3-2.45,4.89-.08,2.04.42,3.9,1.28,4.74l.29.22.28-.09c.23-.07.42-.33.59-.64.14.31.32.57.54.65l.43.11.23-.28c1.05-1.27,1.61-2.88,1.56-4.54-.06-1.86-.78-3.65-2.03-5.04l-.34-.38h-.01ZM54.74,236.68c-.11-.34-.22-.79-.27-1.13l-.99-.04c-.08.37-.23.84-.36,1.18-.4-.71-.71-1.93-.64-3.48.17-1.44.79-2.79,1.76-3.86.88,1.15,1.38,2.54,1.43,3.99.04,1.21-.31,2.39-.93,3.35h0ZM121.15,90.38l.42.26.26-.42c.11-.17,2.58-4.18,1.62-8.29-.72-3.07-2.23-5.62-3.84-6.49h0c-.2-.11-.44-.1-.63.03-.35.23-.51.98-.58,1.75-.41-.63-.89-1.2-1.32-1.24-.24-.02-.46.09-.6.29-.99,1.52-1.18,4.43-.48,7.41.96,4.1,4.96,6.6,5.13,6.71h.02ZM119.15,76.32s.01,0,.02.01h-.02ZM117.14,77.16c.38.45.98,1.45,1.28,2.16l.96-.22c-.05-.8.02-1.96.13-2.54,1.22.92,2.38,3.09,2.97,5.6.69,2.94-.66,5.95-1.24,7.07-1.02-.74-3.56-2.84-4.25-5.79-.57-2.46-.51-4.9.15-6.28ZM104.43,45.08c.62.1,1.74-.89,2.63-1.82-.24,1.23-.39,2.67.07,3.15.14.14.31.22.5.22.07,0,.14,0,.2-.03,2.48-.71,5.42-3.67,7.48-7.55,2.83-5.34.85-11.82.77-12.1l-.15-.47-.47.14c-.27.08-6.75,2.09-9.58,7.42-2.12,4-2.9,8.16-1.99,10.6.09.24.29.4.53.44h.01ZM106.77,34.51c2.2-4.15,6.96-6.2,8.49-6.77.39,1.59,1.37,6.68-.83,10.83-1.86,3.51-4.42,6.2-6.6,6.97-.08-.72.25-2.72.67-4l-.87-.46c-.84,1.1-2.27,2.51-2.9,2.9-.63-2.2.17-5.94,2.04-9.48h0ZM47.28,219.39c-.56.28-1.06.62-1.14.99-.05.23.02.46.21.62,1.03.89,2.92,1.39,5.1,1.39.47,0,.95-.02,1.44-.07,3.76-.37,6.47-3.63,6.58-3.77l.31-.38-.38-.32c-.14-.11-3.41-2.8-7.18-2.43-2.82.27-5.26,1.31-6.23,2.64-.13.18-.16.41-.06.62.15.33.74.56,1.37.72h-.02ZM52.31,216.41c2.63-.26,5.07,1.22,6.03,1.89-.81.84-2.93,2.76-5.55,3.02-2.19.21-4.29-.12-5.44-.83.46-.27,1.36-.66,1.98-.82l-.1-.98c-.67-.04-1.62-.23-2.14-.39.97-.94,2.98-1.67,5.22-1.89ZM99.89,86.56l.44.26.25-.45c.78-1.37,1.05-2.97.77-4.52-.25-1.4-1.02-2.65-2.16-3.51l-.4-.18-.24.17c-.15.1-.25.31-.31.55-.17-.17-.35-.29-.53-.3h-.43l-.14.34c-.54,1.29-.59,2.73-.14,4.05.51,1.49,1.53,2.75,2.88,3.57v.02ZM97.84,80c.14.21.29.47.38.68l.95-.25c-.02-.24-.02-.52-.01-.78.63.65,1.05,1.48,1.21,2.39.21,1.14.06,2.32-.42,3.36-.92-.69-1.63-1.64-2-2.73-.3-.88-.33-1.82-.12-2.68h.01ZM128.21,27.52c-.28.17-.5.36-.55.58l-.06.43.3.2c1.08.71,2.34,1.08,3.62,1.08.31,0,.62-.02.93-.07,1.79-.26,3.44-1.15,4.64-2.49l.34-.38-.39-.33c-1.38-1.17-3.13-1.82-4.94-1.84-1.67,0-3.21.58-4.42,1.69l-.25.37.12.27c.09.21.35.37.66.49h0ZM132.08,25.7c1.39.01,2.75.46,3.88,1.27-1,.96-2.29,1.59-3.67,1.79-1.14.16-2.3-.03-3.29-.53.31-.14.72-.29,1.03-.36l-.07-.98c-.33-.03-.75-.11-1.08-.2.93-.65,2.09-.99,3.19-.99h0ZM136.32,56.81c.49.07.97.1,1.45.1,4.84,0,8.91-3.1,9.1-3.24l.39-.3-.3-.39c-.16-.21-3.9-5.09-9.33-5.83-4.08-.55-7.87.1-9.67,1.64-.19.16-.27.4-.22.64.12.56,1.22,1.17,2.26,1.64-1.1.19-2.28.51-2.54,1.04-.11.23-.09.5.07.71,1.39,1.9,4.83,3.47,8.79,4h0ZM132.07,51.82l.13-.98c-1.15-.36-2.74-1.09-3.31-1.51,1.68-1.19,5.06-1.67,8.61-1.19,4.15.56,7.34,3.88,8.34,5.04-1.27.85-5.23,3.21-9.38,2.65-3.52-.47-6.57-1.77-7.92-3.35.63-.28,2.36-.61,3.53-.65h0ZM111.43,99.52l.1.05h0c1.13.53,2.32.7,3.39.7,1.78,0,3.2-.47,3.29-.51l.47-.16-.16-.47c-.05-.15-1.27-3.74-4.31-5.25-2.24-1.11-4.5-1.48-5.9-.97-.22.08-.37.26-.4.49-.04.32.21.73.55,1.12-.53-.05-1.03-.02-1.26.2l-.24.3.08.28c.39,1.43,2.1,3.08,4.38,4.21h.01ZM110,95.86l.44-.88c-.45-.33-1.01-.87-1.31-1.23,1.17-.19,2.96.2,4.66,1.04,2.04,1.01,3.19,3.2,3.61,4.18-1.04.25-3.47.67-5.51-.34l-.09-.04c-1.91-.96-3.11-2.15-3.58-3.07.49.04,1.27.18,1.79.34h-.01ZM141.01,82.44l-.4.29c-.16.11-3.98,2.86-4.66,7.01-.52,3.1-.11,6.02,1.04,7.44l.15.19h.1c.11.05.23.06.35.04.41-.07.85-.71,1.2-1.39.13.73.36,1.44.74,1.64.09.05.2.07.3.07.13,0,.25-.04.37-.12,1.49-1.02,2.78-3.62,3.27-6.63.68-4.15-2.05-7.98-2.16-8.14l-.29-.4h-.01ZM142.48,90.81c-.41,2.48-1.41,4.7-2.54,5.72-.18-.56-.35-1.71-.35-2.47l-.97-.16c-.26.76-.77,1.8-1.1,2.3-.77-1.31-1.02-3.76-.59-6.3.49-2.97,2.88-5.23,3.85-6.03.66,1.07,2.19,3.97,1.7,6.95h0ZM69.45,247.35c-1.95-1.61-4.15-2.51-5.63-2.28l-.37.11-.1.28c-.11.3.07.76.33,1.23-.49-.15-.97-.22-1.25-.05-.19.12-.3.33-.28.57.11,1.49,1.37,3.4,3.29,4.99,1.95,1.61,4.53,1.83,5.8,1.83.43,0,.71-.03.75-.03l.49-.05-.04-.49c-.01-.16-.38-3.93-2.99-6.1h0ZM66.08,251.42c-1.46-1.21-2.55-2.68-2.85-3.82.45.13,1.17.42,1.66.7l.63-.76c-.36-.41-.81-1.07-1.04-1.5,1.05.06,2.65.69,4.34,2.08,1.76,1.45,2.37,3.85,2.56,4.89-1.07.04-3.53-.14-5.29-1.59h-.01ZM108.95,250.48c-1.86-3.49-4.5-6.08-6.72-6.61-.24-.06-.48.02-.64.19-.37.41-.24,1.57-.03,2.62-.75-.73-1.65-1.42-2.2-1.33-.25.04-.45.22-.53.46-.7,2.15.02,5.73,1.82,9.11,2.49,4.66,8.15,6.38,8.39,6.46l.47.14.15-.47c.07-.24,1.78-5.9-.71-10.56h0ZM101.99,244.83h.02-.02ZM108.84,260.24c-1.4-.52-5.42-2.27-7.3-5.8-1.6-2.99-2.3-6.07-1.84-8.01.58.35,1.79,1.49,2.46,2.36l.87-.47c-.36-1.08-.68-2.7-.68-3.39,1.86.65,4.12,3,5.72,6.01,1.88,3.52,1.11,7.84.77,9.29h0ZM48.13,76.75c1.25,1.07,2.84,1.66,4.49,1.68h.51v-.51c-.02-1.64-.63-3.23-1.7-4.48-.97-1.13-2.32-1.85-3.8-2.01h-.04l-.4.05-.13.27c-.08.18-.06.42.03.69-.25-.07-.49-.08-.67,0l-.36.23.05.35c.2,1.45.92,2.77,2.03,3.72h0ZM47.98,74.01l.7-.7c-.16-.22-.32-.5-.45-.75.94.25,1.79.78,2.44,1.53.8.93,1.3,2.09,1.43,3.31-1.22-.12-2.38-.61-3.31-1.41-.76-.65-1.3-1.51-1.56-2.42.25.12.55.29.76.44h0ZM62,97.07c1.19,1.25,2.79,2.05,4.5,2.25l.51.06.05-.51c.16-1.72-.3-3.45-1.28-4.86-.89-1.29-2.22-2.18-3.75-2.52h-.45l-.15.25c-.11.18-.1.45-.03.75-.27-.11-.53-.16-.73-.09l-.39.19v.36c.06,1.53.67,2.99,1.72,4.11h0ZM62.15,94.18l.77-.62c-.15-.26-.3-.6-.42-.89.99.37,1.84,1.03,2.45,1.91.75,1.08,1.14,2.36,1.13,3.67-1.28-.26-2.46-.91-3.36-1.86-.74-.78-1.21-1.77-1.38-2.78.27.16.58.38.8.57h.01ZM126.95,261.32l-.49.1c-.16.03-4.05.83-6.01,3.79-1.47,2.21-2.16,4.6-1.76,6.11h0c.06.22.22.38.44.43.32.08.81-.18,1.28-.53-.11.55-.14,1.09.07,1.36.12.15.29.24.48.24h.12c1.53-.28,3.38-1.8,4.83-3.98,1.96-2.96,1.18-6.85,1.15-7.01l-.1-.48v-.03ZM125.07,268.27c-1.12,1.68-2.56,2.99-3.73,3.43.08-.49.31-1.3.56-1.86l-.82-.54c-.41.44-1.06.99-1.49,1.28-.06-1.1.41-2.88,1.7-4.82,1.34-2.02,3.8-2.92,4.86-3.23.13,1.1.26,3.71-1.08,5.74h0ZM181.07,75.96c-2.1.97-3.72,2.44-4.11,3.74l-.07.37.21.21c.2.2.62.25,1.07.23-.29.33-.5.68-.47.96.03.23.17.41.38.49.41.16.91.24,1.47.24,1.16,0,2.57-.34,3.99-1,1.84-1.03,3.28-2.69,4.03-4.66l.18-.48-.48-.17c-1.99-.71-4.18-.69-6.2.06h0ZM183.08,80.31c-1.52.7-3.1,1.01-4.15.85.29-.31.77-.75,1.16-1.02l-.42-.9c-.45.12-1.1.23-1.54.26.48-.81,1.6-1.84,3.32-2.63,1.6-.59,3.34-.66,4.98-.2-.71,1.54-1.89,2.82-3.35,3.63h0ZM219.2,56.72c-3.34-.32-6.44.33-7.86,1.66l-.93.87h.89c.27.35.89.68,1.52.96-.81.2-1.6.49-1.79.91-.1.22-.07.47.09.67,1.2,1.52,4.07,2.69,7.31,3,.28.03.56.04.83.04,4.11,0,7.53-2.81,7.69-2.94l.38-.32-.31-.38c-.13-.16-3.34-4.04-7.82-4.47h0ZM218.52,63.79c-2.72-.26-5.21-1.19-6.37-2.34.57-.23,1.84-.52,2.69-.58l.09-.98c-.86-.23-2.06-.72-2.59-1.04,1.34-.94,3.98-1.4,6.76-1.14,3.26.31,5.88,2.76,6.79,3.72-1.08.77-4.11,2.67-7.37,2.36ZM212.63,66.03l-.39.3c-.16.12-3.81,2.95-4.33,7.05-.39,3.06.11,5.92,1.29,7.27.15.17.37.25.6.2.4-.09.8-.71,1.13-1.38.16.71.41,1.39.78,1.57.09.04.18.06.28.06.13,0,.27-.04.38-.13,1.43-1.06,2.6-3.66,2.98-6.64.53-4.1-2.29-7.76-2.41-7.92l-.3-.39h0ZM214.35,74.21c-.31,2.44-1.21,4.65-2.28,5.7-.19-.54-.4-1.66-.42-2.4l-.98-.13c-.22.74-.68,1.76-.98,2.26-.8-1.26-1.12-3.64-.79-6.14.38-2.92,2.62-5.21,3.55-6.04.69,1.04,2.28,3.82,1.91,6.75h-.01ZM222.73,43.1h-.37l-.17.25c-.15.23-.12.63-.02,1.06-.37-.21-.74-.34-1-.25-.21.07-.37.25-.4.47-.23,1.33.46,3.26,1.82,5.09,1.36,1.57,3.23,2.62,5.28,2.95l.51.08.07-.51c.28-2.06-.17-4.16-1.29-5.95-1.36-1.83-3.09-3.09-4.42-3.2h-.01ZM227.5,51.59c-1.61-.38-3.07-1.25-4.14-2.49-1.09-1.47-1.58-2.86-1.63-3.79.36.22.86.58,1.18.9l.79-.59c-.2-.4-.43-.99-.55-1.41.87.3,2.07,1.17,3.16,2.65.88,1.41,1.29,3.07,1.18,4.72h.01ZM180.9,65.68l-.18.46.46.19c.11.04,1.95.77,4.2.77,1.08,0,2.25-.17,3.37-.65,2.59-1.12,4.6-2.85,5.12-4.41h0c.07-.21.02-.44-.13-.6-.25-.27-.87-.31-1.52-.27.45-.44.82-.92.78-1.29-.02-.23-.16-.43-.38-.52-1.53-.64-4.06-.36-6.61.74-3.47,1.5-5.04,5.42-5.1,5.59h0ZM191.81,60.14c-.34.39-1.05,1.01-1.62,1.38l.39.91c.65-.16,1.61-.28,2.15-.28-.64,1.18-2.32,2.5-4.38,3.38-2.41,1.04-5.19.38-6.3.04.51-1.04,1.94-3.52,4.35-4.56,2.01-.87,4.11-1.2,5.41-.88h0ZM198.32,37.85c-.85.9-1.72,2.01-1.59,2.65.05.26.24.46.5.54.55.16,1.18.24,1.87.24,2.37,0,5.44-.93,8.35-2.6,5.18-2.96,6.95-9.41,7.02-9.69l.13-.48-.48-.13c-.27-.08-6.73-1.82-11.91,1.15-3.88,2.21-6.73,5.27-7.26,7.79-.05.25.03.49.22.65.48.41,1.91.18,3.14-.12h0ZM202.71,30.4c4.02-2.3,9.05-1.5,10.64-1.17-.51,1.54-2.38,6.28-6.4,8.58-3.4,1.94-6.95,2.84-9.17,2.34.32-.64,1.64-2.14,2.66-2.97l-.49-.86c-1.28.47-3.17.9-3.94.89.64-2.17,3.27-4.86,6.7-6.81ZM63.66,61.07l.29.02c.11,0,.23-.03.34-.09.04.11.09.21.17.28l.32.25.31-.18c.91-.51,1.59-1.34,1.94-2.32.38-1.1.36-2.31-.06-3.4l-.18-.48-.47.2c-1.08.44-1.97,1.26-2.51,2.29-.5.94-.62,2.03-.34,3.05l.19.38ZM64.69,58.1c.35-.66.87-1.21,1.51-1.58.17.72.13,1.48-.11,2.18-.17.49-.45.93-.8,1.27.01-.06.02-.12.04-.17l-.9-.39s-.06.09-.1.14c0-.5.13-1,.37-1.45h-.01ZM71.11,189.89c-.12.21-.19.41-.16.59l.12.41.35.05c.29.04.58.07.87.07,1.09,0,2.16-.31,3.09-.9,1.32-.85,2.3-2.14,2.76-3.64l.15-.49-.49-.14c-1.51-.43-3.13-.31-4.56.32-1.3.58-2.32,1.62-2.88,2.93l-.08.43.22.2c.14.12.35.17.61.17ZM73.64,187.08c1.05-.47,2.22-.61,3.35-.4-.44,1.06-1.2,1.96-2.16,2.59-.78.5-1.68.75-2.56.75.17-.19.38-.39.56-.53l-.47-.87c-.22.08-.5.15-.74.2.48-.76,1.18-1.37,2.02-1.74ZM102.34,268.52c-1.62,1.4-2.68,3.12-2.7,4.38l.04.37.25.14c.2.11.51.08.84,0-.14.23-.26.48-.36.74l.31.11s0,.03.01.04l.09.16-.03.35h.04c-.02.1-.03.19,0,.28l.12.38.36.03c.12.01.23.02.35.02.79,0,1.56-.25,2.21-.72.57-.42,1.03-.97,1.33-1.6.24-.19.48-.39.7-.61,1.38-1.39,2.23-3.22,2.4-5.17l.04-.51-.51-.03c-1.95-.12-3.89.45-5.5,1.63h.01ZM101.88,273.6s0-.02.01-.03c.21-.24.47-.43.75-.58.52-.27,1.09-.39,1.67-.38-.74.51-1.58.84-2.43.99ZM105.33,271.76l-.18-.04c-.99-.22-2.03-.08-2.93.38l-.27-.31c-.35.21-.85.45-1.22.59.24-.83.96-1.97,2.23-3.07,1.24-.91,2.74-1.41,4.28-1.43-.23,1.45-.9,2.81-1.91,3.88ZM48.44,206.18l.45.21.22-.44c.1-.2,2.42-4.98.87-9.47-1.16-3.36-3.13-6.04-5.02-6.82-.22-.09-.46-.06-.64.09-.38.3-.45,1.26-.42,2.19-.55-.71-1.2-1.38-1.69-1.38h0c-.25,0-.46.14-.58.36-.93,1.81-.81,5.08.31,8.34,1.54,4.49,6.31,6.82,6.51,6.92h-.01ZM44.57,190.59h0ZM42.35,191.71c.47.42,1.33,1.55,1.77,2.37l.93-.32c-.16-.95-.21-2.36-.13-3,1.52.86,3.13,3.22,4.11,6.05,1.14,3.31-.1,6.94-.62,8.22-1.2-.69-4.41-2.79-5.55-6.1-.95-2.77-1.15-5.6-.52-7.23h0ZM199.82,46.7l-.4-.13-.23.19c-.1.09-.17.22-.21.38-.13-.08-.26-.13-.4-.13l-.41.05-.1.34c-.33,1.11-.24,2.3.25,3.35.55,1.17,1.5,2.12,2.68,2.67l.47.22.2-.47c.52-1.19.6-2.53.23-3.78-.33-1.13-1.08-2.09-2.09-2.69h.01ZM200.96,52.25c-.74-.46-1.34-1.13-1.72-1.92-.28-.6-.39-1.25-.35-1.87.08.11.16.22.22.32l.92-.35c-.02-.11-.04-.24-.05-.37.46.44.8.99.98,1.61.25.84.25,1.74,0,2.58h0ZM149.5,142.12c-4.07,0-7.38,3.31-7.38,7.38s3.31,7.38,7.38,7.38,7.38-3.31,7.38-7.38-3.31-7.38-7.38-7.38ZM149.5,155.88c-3.52,0-6.38-2.86-6.38-6.38s2.86-6.38,6.38-6.38,6.38,2.86,6.38,6.38-2.86,6.38-6.38,6.38Z"/>
</svg>