<?xml version="1.0" encoding="UTF-8"?>
<svg id="deco_umbrella2.svg" xmlns="http://www.w3.org/2000/svg" version="1.1" viewBox="0 0 240 239.88">
  <!-- Generator: Adobe Illustrator 29.8.2, SVG Export Plug-In . SVG Version: 2.1.1 Build 3)  -->
  <defs>
    <style>
      .st0 {
        fill: #282828;
      }
    </style>
  </defs>
  <path class="st0" d="M239.99,119.65c0-.09-.02-.17-.07-.25-5.23-9.16-6.63-19.82-3.94-30.02.02-.08.02-.17,0-.25-.03-.11-.06-.21-.09-.32l-.05-.19c-.02-.08-.07-.16-.13-.22-7.42-7.48-11.54-17.4-11.59-27.94,0-.08-.02-.17-.06-.24-.09-.17-.19-.34-.3-.52-.04-.07-.11-.14-.18-.18-9.09-5.31-15.63-13.83-18.4-23.98-.02-.08-.07-.16-.13-.22l-.4-.4c-.06-.06-.14-.11-.22-.13-10.16-2.77-18.68-9.31-24-18.4-.04-.08-.11-.14-.18-.18l-.51-.29c-.08-.04-.16-.07-.25-.07-10.54-.06-20.46-4.17-27.95-11.59-.06-.06-.15-.11-.24-.13-.09-.02-.17-.05-.26-.07l-.22-.06c-.08-.02-.17-.02-.26,0-5.05,1.33-10.24,1.66-15.42.98-5.17-.68-10.08-2.33-14.61-4.92-.08-.04-.16-.07-.25-.07h-.56c-.09,0-.17.02-.25.07-4.53,2.59-9.44,4.24-14.61,4.92-5.18.69-10.37.36-15.42-.98-.08-.02-.17-.02-.25,0-.1.02-.2.05-.31.08l-.2.06c-.08.02-.16.07-.22.13-7.49,7.42-17.41,11.53-27.95,11.59-.08,0-.17.02-.24.06-.18.1-.35.2-.52.3-.07.04-.14.1-.18.18-5.32,9.09-13.84,15.62-23.99,18.39-.08.02-.16.07-.22.13l-.4.4c-.06.06-.11.14-.13.22-2.78,10.15-9.31,18.67-18.4,23.98-.07.04-.14.1-.18.18l-.3.51c-.04.08-.07.16-.07.25-.06,10.53-4.17,20.46-11.59,27.94-.06.06-.11.15-.13.23s-.05.17-.07.25l-.07.23c-.02.08-.02.17,0,.26,1.34,5.05,1.66,10.24.98,15.42-.68,5.17-2.33,10.08-4.92,14.6-.04.08-.07.16-.07.25v.56c0,.09.02.17.07.25,2.59,4.52,4.24,9.43,4.92,14.6.69,5.18.36,10.36-.98,15.41-.02.08-.02.16,0,.25.03.11.06.22.09.33l.05.18c.02.08.07.16.13.22,7.42,7.48,11.53,17.4,11.59,27.94,0,.09.02.17.07.25l.3.51c.04.07.1.13.18.18,9.09,5.31,15.62,13.83,18.4,23.98.02.08.07.16.13.22l.4.4c.06.06.14.11.22.13,10.16,2.77,18.68,9.31,24,18.4.05.08.11.14.19.18.16.09.33.19.5.29.08.04.16.07.25.07,10.54.05,20.46,4.17,27.95,11.58.06.06.15.11.23.13s.17.05.25.07l.23.07c.08.02.17.02.26,0,10.2-2.69,20.87-1.29,30.03,3.94.08.04.16.07.25.07h.56c.09,0,.17-.02.25-.07,9.17-5.23,19.83-6.63,30.03-3.94.08.02.17.02.25,0l.33-.09.17-.05c.08-.02.16-.07.22-.13,7.49-7.42,17.41-11.53,27.95-11.59.09,0,.17-.02.25-.07l.51-.29c.08-.04.14-.11.18-.18,5.32-9.09,13.84-15.62,23.99-18.39.08-.02.16-.07.22-.13l.4-.4c.06-.06.11-.14.13-.22,2.78-10.16,9.31-18.67,18.41-23.98.07-.04.14-.11.18-.18l.29-.51c.04-.08.07-.16.07-.25.06-10.54,4.17-20.46,11.59-27.94.06-.06.11-.14.13-.22l.14-.5c.02-.08.02-.17,0-.26-2.69-10.2-1.29-20.86,3.94-30.01.04-.08.07-.16.07-.25v-.56h0ZM238.81,119.43h-38.31c-3.46-6.05-4.4-13.09-2.66-19.83l37.05-9.92c-2.52,10.11-1.14,20.64,3.92,29.75ZM120,134.94c-8.27,0-15-6.73-15-15s6.73-15,15-15,15,6.73,15,15-6.73,15-15,15ZM134.09,112.38l54.86-31.65c.2,6.83,2.87,13.25,7.58,18.2l-61.22,16.39c-.31-1.03-.72-2.01-1.22-2.94ZM133.58,111.52c-.56-.9-1.21-1.75-1.93-2.52l44.8-44.78c1.96,6.55,6.19,12.05,12.02,15.62l-54.89,31.67h0ZM130.94,108.29c-.77-.73-1.62-1.37-2.52-1.94l31.68-54.84c3.58,5.82,9.1,10.04,15.65,11.99l-44.81,44.79ZM127.56,105.84c-.93-.5-1.91-.91-2.94-1.22l16.39-61.14c4.97,4.69,11.39,7.35,18.22,7.53l-31.67,54.83ZM123.65,104.38c-1.02-.24-2.07-.38-3.15-.41v-63.31c6.01,3.25,12.9,4.15,19.55,2.57,0,0-16.4,61.15-16.4,61.15ZM119.5,103.96c-1.08.03-2.14.17-3.15.41l-16.4-61.15c6.65,1.58,13.54.68,19.55-2.57,0,0,0,63.31,0,63.31ZM115.38,104.62c-1.03.31-2.01.72-2.94,1.22l-31.67-54.83c6.83-.19,13.26-2.84,18.22-7.53l16.39,61.14ZM111.58,106.36c-.9.56-1.75,1.21-2.52,1.94l-44.81-44.79c6.55-1.94,12.07-6.17,15.65-11.99l31.68,54.84ZM108.35,109c-.73.77-1.37,1.62-1.94,2.52l-54.89-31.67c5.83-3.57,10.07-9.08,12.02-15.62l44.8,44.78h.01ZM105.91,112.38c-.5.93-.91,1.91-1.22,2.93l-61.21-16.39c4.71-4.95,7.38-11.37,7.57-18.2l54.86,31.65h0ZM104.44,116.28c-.24,1.02-.38,2.07-.41,3.15h-63.39c3.27-6,4.19-12.89,2.62-19.54l61.18,16.39ZM104.03,120.43c.03,1.08.17,2.13.41,3.15l-61.21,16.39c1.61-6.64.72-13.53-2.52-19.54h63.32ZM104.68,124.55c.31,1.03.72,2.01,1.22,2.94l-54.85,31.65c-.17-6.83-2.81-13.25-7.49-18.22,0,0,61.12-16.37,61.12-16.37ZM106.41,128.35c.56.9,1.21,1.75,1.93,2.52l-44.77,44.75c-1.93-6.55-6.14-12.07-11.95-15.65l54.78-31.61h.01ZM109.06,131.58c.77.73,1.62,1.38,2.52,1.94l-31.64,54.77c-3.56-5.82-9.06-10.06-15.6-12.02l44.71-44.68h.01ZM112.43,134.03c.93.5,1.91.91,2.94,1.22l-16.36,61.04c-4.95-4.69-11.36-7.35-18.17-7.56l31.59-54.7h0ZM116.34,135.5c1.02.24,2.07.38,3.16.41v63.18c-6-3.24-12.88-4.15-19.51-2.58l16.36-61.01h-.01ZM120.5,135.91c1.08-.03,2.14-.17,3.16-.41l16.36,61.01c-6.63-1.58-13.51-.67-19.51,2.58v-63.17h-.01ZM124.62,135.25c1.03-.31,2.02-.72,2.95-1.22l31.6,54.7c-6.82.2-13.22,2.86-18.18,7.56l-16.36-61.03h0ZM128.42,133.52c.9-.56,1.75-1.21,2.52-1.94l44.71,44.68c-6.53,1.96-12.03,6.19-15.59,12.02l-31.64-54.76h0ZM131.65,130.87c.73-.77,1.37-1.62,1.93-2.52l54.78,31.61c-5.8,3.59-10.02,9.1-11.95,15.65l-44.77-44.74h.01ZM134.1,127.49c.5-.93.91-1.91,1.22-2.94l61.12,16.36c-4.68,4.97-7.32,11.39-7.49,18.22l-54.84-31.65h0ZM135.56,123.58c.24-1.02.38-2.07.41-3.15h63.31c-3.24,6.01-4.13,12.9-2.52,19.54l-61.2-16.39ZM135.97,119.43c-.03-1.08-.17-2.13-.41-3.15l61.18-16.39c-1.58,6.65-.66,13.53,2.62,19.54h-63.39ZM234.63,88.72l-37,9.91c-4.9-4.95-7.63-11.5-7.69-18.47l33.21-19.16c.18,10.42,4.25,20.23,11.49,27.72h0ZM222.64,60.13l-33.18,19.15c-6.01-3.52-10.34-9.15-12.21-15.86l27.11-27.09c2.88,10.02,9.34,18.44,18.28,23.81h0ZM203.65,35.62l-27.1,27.08c-6.72-1.85-12.36-6.16-15.89-12.16l19.17-33.18c5.37,8.93,13.8,15.39,23.82,18.26ZM178.97,16.85l-19.17,33.18c-6.97-.05-13.53-2.76-18.49-7.65l9.92-37.01c7.5,7.24,17.31,11.3,27.74,11.48ZM135.01,5.98c5.12.68,10.25.38,15.26-.87l-9.92,37.01c-6.74,1.75-13.78.82-19.84-2.61V1.2c4.51,2.5,9.39,4.11,14.51,4.78h0ZM104.99,5.98c5.12-.67,10-2.28,14.51-4.79v38.32c-6.06,3.43-13.1,4.36-19.84,2.61l-9.92-37.01c5,1.25,10.13,1.55,15.25.87ZM88.77,5.37l9.92,37.02c-4.97,4.88-11.53,7.6-18.5,7.65l-19.16-33.18c10.43-.18,20.23-4.25,27.74-11.48h0ZM60.16,17.35l19.17,33.18c-3.53,6-9.17,10.32-15.89,12.17l-27.1-27.09c10.02-2.87,18.45-9.33,23.82-18.27h0ZM35.64,36.33l27.11,27.09c-1.86,6.71-6.19,12.34-12.21,15.86l-33.18-19.14c8.94-5.37,15.4-13.79,18.27-23.81h0ZM16.86,61l33.2,19.16c-.06,6.96-2.79,13.52-7.69,18.47l-37-9.91c7.24-7.5,11.3-17.3,11.48-27.72h0ZM5.98,104.94c.68-5.12.38-10.25-.87-15.26l37.04,9.92c1.74,6.74.8,13.78-2.66,19.83H1.2c2.5-4.51,4.12-9.38,4.79-14.5h0ZM5.98,134.94c-.67-5.12-2.29-10-4.79-14.51h38.38c3.42,6.06,4.33,13.1,2.56,19.84l-37.01,9.91c1.25-5,1.55-10.12.87-15.24h-.01ZM5.37,151.15l37.09-9.93c4.86,4.96,7.56,11.51,7.6,18.46v.03l-33.22,19.17c-.18-10.42-4.24-20.23-11.49-27.73h.02ZM17.36,179.74l33.29-19.21c5.98,3.54,10.29,9.17,12.12,15.88h0s-27.14,27.14-27.14,27.14c-2.88-10.02-9.34-18.44-18.28-23.81h.01ZM36.34,204.25l27.2-27.18c6.7,1.87,12.31,6.19,15.83,12.19h0l-19.21,33.25c-5.37-8.94-13.8-15.4-23.82-18.27h0ZM61.03,223.01l19.24-33.3c6.95.07,13.5,2.79,18.45,7.67l-9.95,37.11c-7.5-7.23-17.31-11.29-27.74-11.48ZM89.73,234.75l9.96-37.14c6.73-1.74,13.76-.81,19.81,2.62v38.44c-9.12-5.05-19.65-6.44-29.77-3.92ZM120.5,238.67v-38.44c6.05-3.43,13.07-4.35,19.81-2.61l9.96,37.14c-10.12-2.52-20.64-1.14-29.77,3.92h0ZM151.23,234.49l-9.95-37.11c4.95-4.88,11.5-7.6,18.45-7.67l19.23,33.3c-10.43.18-20.23,4.25-27.74,11.48h.01ZM179.84,222.51l-19.21-33.25h0c3.52-6.01,9.13-10.33,15.83-12.2l27.2,27.18c-10.02,2.87-18.45,9.33-23.82,18.27ZM204.36,203.54l-27.14-27.13h0c1.84-6.71,6.14-12.34,12.12-15.88l33.29,19.21c-8.94,5.37-15.4,13.79-18.28,23.8h0ZM223.14,178.87l-33.22-19.17v-.03c.04-6.95,2.74-13.5,7.6-18.46l37.1,9.93c-7.24,7.5-11.31,17.3-11.49,27.72h.01ZM234.89,150.18l-37.02-9.91c-1.77-6.74-.86-13.77,2.56-19.84h38.38c-5.05,9.12-6.44,19.64-3.92,29.75ZM120,113.94c-3.31,0-6,2.69-6,6s2.69,6,6,6,6-2.69,6-6-2.69-6-6-6ZM120,124.94c-2.76,0-5-2.24-5-5s2.24-5,5-5,5,2.24,5,5-2.24,5-5,5Z"/>
</svg>