<?xml version="1.0" encoding="UTF-8"?>
<svg id="deco_umbrella1.svg" xmlns="http://www.w3.org/2000/svg" version="1.1" viewBox="0 0 240 240">
  <!-- Generator: Adobe Illustrator 29.8.2, SVG Export Plug-In . SVG Version: 2.1.1 Build 3)  -->
  <defs>
    <style>
      .st0 {
        fill: #282828;
      }
    </style>
  </defs>
  <path class="st0" d="M239.99,119.72c0-.09-.02-.17-.07-.25-.01-.02-.03-.05-.04-.07-.37-.65-.72-1.31-1.05-1.98-.11-.22-.21-.44-.32-.66-.26-.54-.5-1.08-.73-1.63-.07-.17-.14-.34-.21-.51-1.92-4.75-2.92-9.85-2.9-14.99,0-.02-.01-.04-.02-.07.01-3.38.45-6.77,1.33-10.12.02-.08.02-.16,0-.25-.03-.11-.06-.21-.09-.32l-.05-.19c-.02-.08-.07-.16-.13-.22-7.42-7.48-11.54-17.41-11.59-27.95,0-.08-.02-.17-.06-.24-.08-.15-.17-.3-.3-.52-.04-.07-.1-.14-.18-.18-9.09-5.31-15.63-13.83-18.4-23.99-.02-.08-.07-.16-.13-.22l-.4-.4c-.06-.06-.14-.11-.22-.13-10.16-2.77-18.69-9.31-24-18.41-.04-.08-.11-.14-.18-.18l-.51-.29c-.08-.04-.16-.07-.25-.07-10.54-.06-20.47-4.17-27.95-11.59-.06-.06-.15-.11-.23-.13-.08-.02-.17-.05-.25-.07l-.23-.07c-.08-.02-.17-.02-.26,0-5.05,1.34-10.24,1.66-15.43.97-5.17-.68-10.08-2.33-14.61-4.92-.08-.04-.16-.07-.25-.07h-.28s-.28,0-.28,0c-.09,0-.17.02-.25.07-4.53,2.59-9.44,4.24-14.61,4.92-5.18.69-10.37.36-15.42-.98-.08-.02-.17-.02-.25,0-.1.03-.21.06-.31.09l-.19.06c-.08.02-.16.07-.22.13-7.49,7.42-17.41,11.54-27.95,11.59-.08,0-.17.02-.24.06-.17.1-.35.2-.52.3-.07.04-.14.11-.18.18-5.31,9.09-13.84,15.63-23.99,18.4-.08.02-.16.07-.22.13l-.4.4c-.06.06-.11.14-.13.22-2.77,10.16-9.31,18.69-18.4,24-.07.04-.14.1-.18.18l-.3.51c-.04.08-.07.16-.07.25-.06,10.54-4.17,20.46-11.59,27.95-.06.06-.11.15-.13.23-.02.08-.05.17-.07.25l-.07.23c-.02.08-.02.17,0,.26,1.33,5.05,1.66,10.24.97,15.42-.68,5.17-2.33,10.08-4.92,14.61-.04.08-.07.16-.07.25v.28s0,.28,0,.28c0,.09.02.17.07.25,2.59,4.53,4.24,9.44,4.92,14.61.69,5.18.36,10.37-.98,15.42-.02.08-.02.16,0,.25.03.11.06.22.09.33l.05.18c.02.08.07.16.13.22,7.42,7.49,11.54,17.41,11.59,27.95,0,.09.02.17.07.25l.3.51c.04.07.11.14.18.18,9.09,5.31,15.63,13.83,18.4,23.99.02.08.07.16.13.22l.4.4c.06.06.14.11.22.13,10.16,2.77,18.69,9.31,24,18.41.04.07.1.14.18.18l.51.29c.08.04.16.07.25.07,10.54.06,20.47,4.17,27.95,11.59.06.06.14.1.22.13l.5.14c.08.02.17.02.26,0,3.34-.88,6.73-1.31,10.1-1.32.03,0,.05.02.08.02.05.02.07,0,.1,0,5.12,0,10.19,1,14.92,2.91.17.07.33.14.5.21.55.23,1.1.48,1.64.73.22.1.43.2.65.31.67.33,1.33.68,1.98,1.05.02.01.05.03.07.04.08.04.16.07.25.07h.28s.28,0,.28,0c.09,0,.17-.02.25-.07.57-.33,1.15-.64,1.74-.94,5.84-2.97,12.22-4.44,18.66-4.34,1.67.03,3.35.17,5.02.41,1.54.22,3.09.52,4.62.92.08.02.17.02.25,0,.11-.03.21-.06.32-.09l.19-.05c.08-.02.16-.07.22-.13,7.49-7.42,17.41-11.54,27.95-11.59.08,0,.17-.02.24-.06.16-.09.33-.19.53-.3.07-.04.14-.11.18-.18,5.31-9.09,13.84-15.63,24-18.41.08-.02.16-.07.22-.13l.4-.4c.06-.06.11-.14.13-.22,2.77-10.16,9.31-18.69,18.41-24,.08-.04.14-.11.18-.18l.29-.51c.04-.08.07-.16.07-.25.06-10.54,4.17-20.47,11.59-27.95.06-.06.1-.14.13-.22l.14-.5c.02-.08.02-.17,0-.25-2.69-10.2-1.29-20.87,3.94-30.03.04-.08.07-.16.07-.25v-.28s0-.28,0-.28ZM233.71,97.64c-1.16-2.25-2.4-4.44-3.73-6.59l4.91-1.31c-.65,2.62-1.04,5.26-1.18,7.91ZM234.63,88.77l-5.21,1.4c-5.17-8.17-11.49-15.57-18.73-21.94l12.45-7.19c.18,10.43,4.25,20.24,11.49,27.74ZM222.64,60.16l-12.74,7.36c-6.45-5.56-13.58-10.33-21.26-14.11-.3-.15-.61-.29-.91-.43l16.64-16.64c2.87,10.02,9.34,18.45,18.28,23.82ZM203.65,35.64l-16.88,16.88c-7.46-3.49-15.14-5.98-22.89-7.53l15.95-27.63c5.37,8.94,13.79,15.4,23.82,18.28ZM178.97,16.86l-16.12,27.92c-7.22-1.37-14.5-1.92-21.71-1.7l10.1-37.71c7.5,7.24,17.31,11.31,27.74,11.49ZM135.01,5.98c5.12.68,10.25.38,15.26-.86l-10.18,37.99c-6.62.27-13.18,1.19-19.58,2.73V1.19c4.51,2.5,9.39,4.12,14.51,4.79ZM104.99,5.98c5.12-.67,10-2.29,14.51-4.79v44.9c-5.89,1.48-11.65,3.48-17.18,5.98l-12.58-46.96c5,1.25,10.13,1.55,15.25.87ZM88.77,5.37l12.63,47.14c-5.17,2.4-10.15,5.25-14.88,8.51l-25.49-44.15c10.43-.18,20.24-4.25,27.74-11.49ZM60.16,17.36l25.53,44.22c-4.51,3.18-8.77,6.74-12.74,10.66l-36.61-36.61c10.02-2.87,18.45-9.34,23.82-18.27ZM35.64,36.34l36.6,36.61c-3.87,3.9-7.44,8.15-10.68,12.73l-44.19-25.51c8.94-5.37,15.4-13.8,18.27-23.82ZM16.86,61.03l44.12,25.47c-2.8,4.05-5.34,8.35-7.58,12.89-.33.66-.64,1.32-.95,1.99l-47.08-12.62c7.24-7.5,11.31-17.31,11.49-27.74ZM5.98,104.99c.68-5.12.39-10.25-.86-15.26l46.92,12.57c-2.54,5.59-4.55,11.35-6.03,17.19H1.19c2.5-4.51,4.12-9.39,4.79-14.51ZM5.98,135.01c-.67-5.12-2.29-10-4.79-14.51h44.57c-1.56,6.45-2.46,13.01-2.72,19.6l-37.93,10.16c1.25-5.01,1.55-10.13.87-15.25ZM5.37,151.23l37.64-10.08c-.2,7.24.38,14.51,1.77,21.7l-27.92,16.12c-.18-10.43-4.25-20.24-11.49-27.74ZM17.36,179.84l27.62-15.94c.86,4.25,2,8.47,3.41,12.64,1.19,3.51,2.58,6.92,4.13,10.24l-16.88,16.88c-2.87-10.02-9.34-18.45-18.28-23.82ZM36.35,204.36l16.63-16.63c3.86,8.09,8.73,15.55,14.5,22.25l-7.31,12.66c-5.37-8.94-13.8-15.4-23.82-18.28ZM61.03,223.14l7.13-12.35c6.34,7.2,13.73,13.49,21.99,18.67l-1.38,5.17c-7.5-7.24-17.31-11.3-27.74-11.49ZM97.64,233.71c-2.64.13-5.29.52-7.91,1.17l1.31-4.87c2.14,1.31,4.35,2.54,6.6,3.7ZM239,120.15c-5.29,9.33-6.71,20.16-4.01,30.54l-.07.24c-2.82,2.86-5.17,6.07-7.01,9.52-3.07,5.76-4.72,12.21-4.78,18.9l-.16.28c-9.22,5.43-15.86,14.09-18.72,24.4l-.21.21c-10.32,2.85-18.98,9.49-24.41,18.72-.09.05-.19.11-.28.16-10.71.09-20.8,4.28-28.43,11.79l-.08.02c-.05.02-.1.03-.15.04-10.38-2.7-21.22-1.28-30.55,4.01h-.15s-.15,0-.15,0c-.69-.39-1.4-.76-2.1-1.11-.21-.1-.41-.2-.62-.3-.57-.27-1.14-.52-1.72-.77-.15-.06-.31-.13-.46-.19-4.87-1.97-10.03-2.97-15.24-2.97-23.89-11.81-41.78-32.21-50.36-57.45-8.6-25.29-6.83-52.41,4.97-76.38,24.36-49.46,84.43-69.89,133.89-45.53,19.63,9.67,35.77,25.79,45.46,45.4,0,5.21,1,10.36,2.97,15.23.06.16.13.32.2.48.24.57.49,1.14.76,1.7.1.21.2.42.3.63.34.7.7,1.39,1.09,2.07,0,0,0,.02.01.03v.15s0,.15,0,.15ZM137.41,115.59c-1.45-2.33-2.82-4.54-6.63-4.54h0c-.79.04-1.57.23-2.29.53.3-.73.49-1.52.53-2.32,0-3.79-2.2-5.15-4.54-6.6-1.42-.88-2.89-1.79-4.09-3.33-.19-.24-.6-.24-.79,0-1.2,1.54-2.67,2.45-4.09,3.33-2.33,1.45-4.54,2.82-4.54,6.63.04.79.23,1.57.53,2.29-.73-.3-1.52-.49-2.32-.53-3.79,0-5.15,2.2-6.6,4.54-.88,1.42-1.79,2.89-3.33,4.09-.12.09-.19.24-.19.39s.07.3.19.39c1.54,1.2,2.45,2.67,3.33,4.09,1.45,2.33,2.82,4.54,6.63,4.54h0c.79-.04,1.57-.23,2.29-.53-.3.73-.49,1.52-.53,2.32,0,3.79,2.2,5.15,4.54,6.6,1.42.88,2.89,1.79,4.09,3.33.09.12.24.19.39.19s.3-.07.39-.19c1.2-1.54,2.67-2.45,4.09-3.33,2.33-1.45,4.54-2.82,4.54-6.63-.04-.79-.23-1.57-.53-2.29.73.3,1.52.49,2.32.53,3.79,0,5.15-2.2,6.6-4.54.88-1.42,1.79-2.89,3.33-4.09.12-.09.19-.24.19-.39s-.07-.3-.19-.39c-1.54-1.2-2.45-2.67-3.33-4.09ZM136.56,124.03c-1.41,2.27-2.52,4.06-5.72,4.07-1.29-.07-2.5-.55-3.5-1.38-.2-.16-.49-.16-.67.03-.18.18-.2.48-.03.67.83.99,1.31,2.2,1.38,3.47,0,3.23-1.79,4.34-4.06,5.75-1.28.8-2.72,1.69-3.96,3.09-1.23-1.4-2.67-2.29-3.96-3.09-2.27-1.41-4.06-2.52-4.07-5.72.07-1.27.56-2.52,1.38-3.5.17-.2.15-.49-.03-.67-.1-.1-.23-.15-.35-.15-.11,0-.23.04-.32.12-.98.82-2.22,1.31-3.47,1.38-3.23,0-4.34-1.79-5.75-4.06-.8-1.28-1.69-2.72-3.09-3.96,1.4-1.23,2.29-2.67,3.09-3.96,1.41-2.27,2.52-4.06,5.72-4.06,1.28.07,2.52.56,3.5,1.38.2.17.49.15.67-.03.18-.18.2-.48.03-.67-.82-.98-1.31-2.22-1.38-3.47,0-3.23,1.79-4.34,4.06-5.75,1.28-.8,2.72-1.69,3.96-3.09,1.23,1.4,2.67,2.29,3.96,3.09,2.27,1.41,4.06,2.52,4.07,5.72-.07,1.28-.56,2.52-1.38,3.5-.17.2-.15.49.03.67.18.18.47.2.67.03.98-.82,2.22-1.31,3.47-1.38,3.23,0,4.34,1.79,5.75,4.06.8,1.28,1.69,2.72,3.09,3.96-1.4,1.23-2.29,2.67-3.09,3.96ZM120,114c-3.31,0-6,2.69-6,6s2.69,6,6,6,6-2.69,6-6-2.69-6-6-6ZM120,125c-2.76,0-5-2.24-5-5s2.24-5,5-5,5,2.24,5,5-2.24,5-5,5Z"/>
</svg>