<?xml version="1.0" encoding="UTF-8"?>
<svg id="deco_umbrella4.svg" xmlns="http://www.w3.org/2000/svg" version="1.1" viewBox="0 0 299 299">
  <!-- Generator: Adobe Illustrator 29.8.2, SVG Export Plug-In . SVG Version: 2.1.1 Build 3)  -->
  <defs>
    <style>
      .st0 {
        fill: #282828;
      }
    </style>
  </defs>
  <path class="st0" d="M299.37,149.15c0-.09-.02-.17-.07-.25-6.56-11.48-8.31-24.85-4.94-37.63.02-.08.02-.17,0-.25l-.18-.62c-.02-.08-.07-.16-.13-.22-9.29-9.38-14.45-21.82-14.52-35.02,0-.09-.02-.17-.07-.25l-.37-.64c-.04-.07-.1-.14-.18-.18-11.4-6.66-19.59-17.34-23.07-30.07-.02-.08-.07-.16-.13-.22l-.5-.5c-.06-.06-.14-.11-.22-.13-6.3-1.72-12.12-4.61-17.31-8.59-5.18-3.97-9.47-8.84-12.76-14.48-.04-.07-.11-.14-.18-.18l-.64-.37c-.08-.04-.16-.07-.25-.07-6.52-.03-12.89-1.31-18.92-3.81-6.05-2.5-11.47-6.1-16.11-10.71-.06-.06-.14-.1-.22-.13l-.62-.18c-.08-.02-.17-.02-.26,0-6.33,1.67-12.83,2.08-19.33,1.23-6.48-.85-12.64-2.92-18.31-6.16-.08-.04-.16-.07-.25-.07h-.7c-.09,0-.17.02-.25.07-5.67,3.24-11.83,5.32-18.31,6.16-6.49.86-12.99.45-19.32-1.22-.08-.02-.17-.02-.26,0l-.62.17c-.08.02-.16.07-.22.13-4.64,4.61-10.06,8.21-16.11,10.71-6.03,2.5-12.39,3.78-18.92,3.81-.09,0-.17.02-.25.07l-.64.37c-.07.04-.14.11-.18.18-3.29,5.64-7.58,10.51-12.76,14.48-5.18,3.98-11,6.87-17.3,8.58-.08.02-.16.07-.22.13l-.5.5c-.06.06-.11.14-.13.22-1.72,6.3-4.61,12.13-8.59,17.31-3.97,5.18-8.84,9.48-14.48,12.76-.07.04-.14.11-.18.18l-.37.64c-.04.08-.07.16-.07.25-.03,6.53-1.31,12.89-3.81,18.92-2.5,6.05-6.1,11.47-10.71,16.11-.06.06-.1.14-.13.22l-.18.62c-.02.08-.02.17,0,.25,1.67,6.33,2.09,12.83,1.23,19.32-.85,6.48-2.92,12.64-6.16,18.31-.04.08-.07.16-.07.25v.7c0,.09.02.17.07.25,3.24,5.67,5.32,11.83,6.16,18.31.6,4.51.57,9.03-.06,13.49h-.05c-.27,1.85-.64,3.69-1.11,5.49l-.03.13.05.17s0,.03-.01.05c-.02.08-.02.17,0,.26l.17.62c.02.08.07.16.13.22,4.61,4.64,8.21,10.06,10.71,16.11,2.5,6.03,3.78,12.39,3.81,18.92,0,.09.02.17.07.25l.37.64c.04.07.11.14.18.18,5.64,3.29,10.51,7.58,14.48,12.76,3.98,5.18,6.87,11,8.58,17.3.02.08.07.16.13.22l.5.5c.06.06.14.11.22.13,12.73,3.48,23.41,11.67,30.07,23.07.04.08.11.14.18.18l.64.37c.08.04.16.07.25.07,13.21.07,25.65,5.23,35.03,14.53.06.06.14.1.22.13l.62.18c.08.02.17.02.26,0,12.79-3.37,26.15-1.62,37.63,4.94.08.04.16.07.25.07h.7c.09,0,.17-.02.25-.07,11.49-6.55,24.85-8.31,37.64-4.94.08.02.17.02.25,0l.62-.18c.08-.02.16-.07.22-.13,9.38-9.29,21.82-14.45,35.02-14.52.09,0,.17-.02.25-.07l.65-.37c.07-.04.14-.1.18-.18,6.66-11.4,17.34-19.59,30.07-23.07.08-.02.16-.07.22-.13l.5-.5c.06-.06.11-.14.13-.22,3.48-12.73,11.67-23.41,23.07-30.07.08-.04.14-.11.18-.18l.37-.64c.04-.08.07-.16.07-.25.07-13.21,5.23-25.65,14.53-35.03.06-.06.1-.14.13-.22l.18-.62c.02-.08.02-.17,0-.25-3.37-12.79-1.62-26.15,4.94-37.64.04-.08.07-.16.07-.25v-.7h-.01ZM298.22,149h-18.95c-1.16-9.58-3.45-19.06-6.91-28.25-.41-1.11-.85-2.21-1.29-3.31l22.21-5.95c-3.23,12.75-1.48,26.03,4.94,37.51h0ZM275.42,193.17c-6.46,25.48-21.15,48.08-42.47,65.37-21.53,17.37-47.4,28.51-74.81,32.21-7.19.99-14.52,1.49-21.78,1.49-.42,0-.84,0-1.26-.01h-.52c-1.48-.31-2.71-.52-3.87-.67-3.78-.49-7.63-.56-11.33-.2-3.97-.41-7.99-.98-11.93-1.68-9.04-7.46-20.45-11.61-32.17-11.7l-.42-.24c-6.78-11.5-17.6-19.78-30.48-23.32l-.31-.31c-1.76-6.37-4.69-12.25-8.72-17.48-4.02-5.24-8.96-9.59-14.65-12.92l-.24-.41c-.05-6.6-1.36-13.03-3.89-19.12-.22-.52-.44-1.05-.68-1.56,3.72,5.96,8,11.58,12.79,16.82,14.12,15.32,31.96,27.14,51.57,34.17,21.42,7.78,53.21,11.5,73.94,8.65,22.19-2.99,43.13-11.99,60.56-26.04,32.1-26.02,43.73-67.27,29.63-105.08-6.43-17.5-17.96-32.34-33.33-42.91-16.67-11.43-37.49-17.11-60.14-16.44-19.91.59-37.68,8.59-50.05,22.53-12.5,14.09-19.56,34.29-17.98,51.47,2.93,31.9,20.05,49.59,50.86,52.56,24.05,2.32,47.04-10.06,52.35-28.19,3.54-12.06,1.59-21.78-5.62-28.1-5.94-5.2-13.83-6.4-17.99-4.56-.79.3-1.48.8-2,1.47-.21.08-.42.16-.63.25.07-.15.13-.32.19-.47.03-.09.07-.17.11-.26.06-.17.1-.34.15-.5.03-.09.06-.18.08-.28.05-.19.08-.39.12-.58,0-.07.03-.15.04-.22.04-.27.07-.54.09-.82,0-4.66-2.73-6.35-5.61-8.14-1.78-1.11-3.63-2.25-5.15-4.18l-.39-.5-.39.5c-.95,1.21-2.03,2.11-3.13,2.88-.67.46-1.34.88-2.01,1.3-2.89,1.79-5.61,3.48-5.61,8.17.05.94.27,1.86.63,2.73.05.13.1.25.15.38-.98-.45-2.04-.72-3.11-.78h-.03c-2.07-.1-4.02.63-5.49,2,1.21-13.47,8.57-24.09,20.36-29.27,15.17-6.66,34.72-2.94,48.66,9.26,15.79,13.82,20.99,34.89,14.28,57.79-4.72,16.1-16.28,29.87-32.55,38.75-15.45,8.26-32.83,11.72-50.26,10.01-16.47-1.59-70.68-11.95-76.8-78.57-2.27-24.7,7.58-53.42,25.11-73.17,17.28-19.47,45.62-32.09,73.94-32.93,27.3-.82,50.87,6.24,74.17,22.21,20.29,13.93,35.52,33.49,44.03,56.59,8.7,23.16,10.09,48.09,4,72.07v-.02ZM112,291.42c1.81.27,3.64.51,5.48.71-2,.26-3.99.64-5.97,1.14l.5-1.85h-.01ZM6.49,183.97c1.43,3.6,3.03,7.11,4.79,10.52-1.64-2.35-3.49-4.56-5.53-6.62l-.06-.2c.32-1.23.57-2.46.8-3.7h0ZM69.56,195.08l-40.43,23.34c-8.33-9.17-15.04-19.5-20.02-30.78l49.57-13.28c2.87,8.05,6.6,14.9,10.88,20.73h0ZM140.41,141.19l.7-.7c-1.04-1.24-1.67-2.82-1.76-4.41,0-4.1,2.27-5.51,5.14-7.29,1.63-1.01,3.46-2.15,5.01-3.94,1.55,1.79,3.38,2.93,5.01,3.94,2.87,1.78,5.14,3.19,5.14,7.26-.09,1.62-.72,3.2-1.76,4.44l.69.72c.71-.55,1.49-.99,2.32-1.32.68-.25,1.39-.41,2.1-.45,4.11,0,5.51,2.27,7.3,5.13,1.01,1.63,2.15,3.46,3.94,5-1.79,1.55-2.93,3.38-3.94,5-1.78,2.87-3.19,5.13-7.27,5.13-1.62-.09-3.2-.72-4.44-1.76l-.7.71c1.04,1.24,1.67,2.82,1.76,4.41,0,4.1-2.27,5.51-5.14,7.29-1.63,1.01-3.46,2.14-5.01,3.94-1.55-1.79-3.38-2.93-5.01-3.94-2.87-1.78-5.14-3.19-5.14-7.26.09-1.62.72-3.19,1.76-4.44l-.7-.71c-1.24,1.04-2.82,1.67-4.42,1.76-4.11,0-5.51-2.27-7.3-5.13-1.01-1.63-2.15-3.46-3.94-5,1.79-1.55,2.93-3.38,3.94-5,.26-.41.5-.81.75-1.19l.85-1.19c.08-.11.16-.2.24-.3.33-.39.68-.75,1.07-1.06.13-.1.27-.21.41-.3.04-.03.08-.05.12-.08.4-.25.83-.46,1.27-.62.72-.25,1.56-.39,2.56-.39,1.62.09,3.2.72,4.44,1.76h0ZM89.09,115.2l40.61,23.44c-.13,1.01-.23,2.02-.3,3.06-.39.51-.75,1.04-1.1,1.6l-43.86-11.75c.86-5.49,2.44-11.02,4.65-16.35ZM84.27,132.54l43.47,11.65c-1.04,1.67-2.13,3.37-3.89,4.81h-39.6c-.14-1.09-.27-2.19-.37-3.32-.39-4.24-.24-8.67.39-13.14h0ZM123.7,150c1.81,1.43,2.93,3.15,3.98,4.84l-39.47,10.57c-1.76-4.64-3.03-9.78-3.82-15.41h39.31ZM128.23,155.72c.89,1.41,1.81,2.74,3.15,3.67l-35.04,20.23c-3.17-3.83-5.76-8.25-7.76-13.28l39.66-10.63h0ZM132.37,159.97c.98.46,2.16.74,3.64.74h0c.65-.04,1.29-.16,1.91-.34l-29.46,29.46c-4.4-2.54-8.24-5.68-11.48-9.42l35.39-20.43h0ZM138.74,160.96c-.21.68-.35,1.38-.39,2.1,0,1.43.26,2.58.7,3.54l-16.62,28.79c-4.79-1.22-9.15-2.9-13.07-5.04l29.38-29.38h0ZM139.62,167.6c.92,1.34,2.24,2.27,3.66,3.17l-7.17,26.75c-.75-.04-1.5-.1-2.26-.17-3.67-.35-7.14-.93-10.41-1.7l16.18-28.03v-.02ZM144.16,171.32c1.68,1.04,3.39,2.15,4.84,3.93v21.62c-3.85.62-7.83.85-11.87.69l7.03-26.23h0ZM150,175.25c1.44-1.78,3.15-2.89,4.83-3.93l5.98,22.34c-3.41,1.34-7.04,2.36-10.82,3.03v-21.44h.01ZM161.75,193.28l-6.03-22.51c1.41-.89,2.74-1.82,3.66-3.16l11.85,20.52c-2.87,2.01-6.05,3.73-9.47,5.15h-.01ZM172.03,187.54l-12.09-20.94c.44-.97.7-2.13.7-3.57-.04-.7-.18-1.39-.38-2.05l19.35,19.35c-2.11,2.66-4.67,5.08-7.58,7.21ZM180.23,179.53l-19.18-19.18c.63.19,1.29.31,1.96.35,1.47,0,2.64-.27,3.62-.73l18.3,10.57c-1.03,3.21-2.63,6.22-4.7,8.99h0ZM185.23,169.56l-17.61-10.17c1.33-.93,2.25-2.26,3.14-3.67l16.03,4.3c-.08,2.97-.6,6.16-1.57,9.54h.01ZM171.32,154.83c1.05-1.68,2.16-3.4,3.97-4.83h9.76c1.14,2.68,1.73,5.69,1.75,8.98l-15.49-4.15h.01ZM175.14,149c-1.76-1.44-2.85-3.15-3.89-4.81l7.74-2.07c.28.22.56.45.84.68,2.04,1.78,3.62,3.86,4.77,6.2h-9.46ZM170.7,143.3c-.89-1.41-1.83-2.72-3.18-3.63l2.83-1.63c2.5.52,5.16,1.6,7.62,3.31l-7.27,1.95h0ZM166.5,139.11c-.96-.43-2.1-.68-3.51-.68h0c-.07,0-.13.02-.2.02.03,0,.06-.03.09-.04,1.54-.67,3.62-.89,5.92-.62l-2.29,1.32h-.01ZM129.85,137.58l-40.37-23.31c2.33-5.41,5.3-10.57,8.84-15.24l32.84,32.84c-.57,1.83-1,3.74-1.31,5.71h0ZM131.52,130.81l-32.58-32.58c.87-1.11,1.76-2.21,2.69-3.26,3.13-3.53,6.62-6.66,10.39-9.39l22.42,38.82c-1.17,2-2.14,4.14-2.92,6.41ZM135.03,123.44l-22.19-38.43c5.07-3.54,10.64-6.36,16.61-8.4l10.82,40.38c-2.01,1.92-3.76,4.09-5.24,6.45h0ZM141.11,116.24l-10.7-39.95c5.87-1.91,12.11-3.06,18.6-3.41v38.06c-2.93,1.44-5.57,3.22-7.89,5.3h-.01ZM150,72.83c.32-.01.63-.04.95-.05,6.28-.19,12.41.13,18.34.92l-9.04,33.72c-3.39.53-6.69,1.46-9.81,2.83-.15.07-.3.15-.45.22v-37.64h0ZM170.3,73.83c6.81.96,13.36,2.55,19.57,4.76l-16.59,28.74c-4.01-.54-8.03-.58-11.93-.07l8.96-33.43h-.01ZM190.82,78.94c6.75,2.48,13.09,5.7,18.93,9.61l-22.71,22.71c-4.11-1.83-8.39-3.1-12.69-3.78l16.48-28.55h0ZM210.6,89.11c6.23,4.29,11.81,9.31,16.67,14.91l-27.1,15.64c-3.72-3.26-7.84-5.92-12.17-7.96l22.6-22.6h0ZM227.93,104.79c5.06,5.97,9.31,12.61,12.65,19.79l-29.78,7.98c-2.58-4.47-5.87-8.56-9.85-12.18l26.99-15.58h0ZM241,125.5c.88,1.95,1.7,3.94,2.45,5.97,2.16,5.78,3.7,11.65,4.66,17.53h-31.34c-1-5.53-2.82-10.74-5.46-15.54l29.7-7.96h0ZM248.26,150c1.3,8.55,1.35,17.13.21,25.51l-31.33-8.4c.75-5.93.67-11.67-.2-17.11h31.32,0ZM217.01,168.11l31.33,8.39c-1.27,8.66-3.81,17.11-7.55,25.12l-28.46-16.43c.93-2.18,1.75-4.42,2.42-6.7,1.03-3.51,1.78-6.98,2.26-10.38h0ZM211.92,186.11l28.43,16.41c-3.81,7.92-8.8,15.4-14.92,22.19l-23.26-23.26c4.02-4.69,7.3-9.84,9.76-15.34h-.01ZM201.5,202.2l23.25,23.25c-3.24,3.52-6.78,6.86-10.62,9.97-3.28,2.64-6.68,5.1-10.19,7.37l-16.43-28.46c5.3-3.52,9.98-7.61,13.99-12.14h0ZM186.67,214.88l16.42,28.45c-7.77,4.94-16.05,8.98-24.71,12.05l-8.63-32.22c4.09-1.47,8.09-3.24,11.96-5.32,1.71-.93,3.35-1.93,4.95-2.96h0ZM168.81,223.49l8.63,32.22c-7.56,2.6-15.39,4.48-23.38,5.55-1.31.18-2.67.33-4.06.46v-33.92c6.4-.75,12.7-2.19,18.81-4.31ZM149,261.8c-8.65.71-18.7.46-28.92-.6l8.96-33.43c.65.08,1.27.14,1.84.2,6.07.6,12.14.56,18.12-.07v33.9ZM119.08,261.09c-10.36-1.13-20.83-3.1-30.11-5.74l18.81-32.58c7.97,2.84,15.18,4.21,20.27,4.87l-8.97,33.44h0ZM87.98,255.06c-2.56-.75-5.03-1.55-7.38-2.4-7.92-2.84-15.54-6.48-22.75-10.8l29.49-29.49c6.48,4.51,13.19,7.75,19.48,10.06,0,0-18.84,32.63-18.84,32.63ZM56.97,241.32c-9.99-6.11-19.16-13.57-27.14-22.15l40.33-23.29c4.93,6.52,10.53,11.74,16.35,15.9l-29.54,29.54ZM293.02,110.53l-22.31,5.98c-4.05-9.85-9.35-19-15.75-27.31l23.6-13.63c.17,13.15,5.3,25.53,14.47,34.96h-.01ZM278.04,74.71l-23.71,13.69c-6.24-7.96-13.52-15.12-21.7-21.32l22.38-22.38c3.58,12.66,11.73,23.29,23.03,30.01h0ZM237.08,35.36c5.17,3.97,10.96,6.87,17.22,8.63l-22.47,22.47c-1.27-.95-2.56-1.87-3.88-2.78-7.06-4.84-14.15-8.85-21.35-12.09l17.68-30.63c3.33,5.59,7.62,10.44,12.79,14.4h.01ZM204.56,16.58c6.02,2.5,12.36,3.8,18.87,3.88l-17.73,30.71c-8.8-3.88-17.79-6.58-27.14-8.18l9.92-37.01c4.66,4.54,10.07,8.11,16.09,10.6h0ZM168.28,6.86c6.46.85,12.92.47,19.23-1.13l-9.94,37.1c-7.84-1.27-15.93-1.77-24.37-1.52-1.07.03-2.13.09-3.19.15V.78c5.67,3.18,11.82,5.23,18.28,6.07h0ZM130.72,6.86c6.46-.84,12.6-2.89,18.28-6.07v40.73c-9.01.63-17.97,2.42-26.52,5.21l-10.99-41.01c6.31,1.6,12.77,1.99,19.23,1.13h0ZM94.44,16.58c6.02-2.49,11.43-6.05,16.09-10.59l11,41.06c-8.53,2.87-16.64,6.74-23.99,11.46l-21.96-38.04c6.51-.08,12.85-1.38,18.87-3.88h-.01ZM61.91,35.36c5.17-3.96,9.47-8.81,12.79-14.4l21.99,38.09c-6.84,4.48-12.99,9.69-18.16,15.52-.51.58-1.01,1.16-1.51,1.75l-32.34-32.33c6.27-1.76,12.06-4.66,17.23-8.63ZM35.36,61.91c3.97-5.16,6.87-10.95,8.63-17.21l32.39,32.39c-5.39,6.53-9.98,13.91-13.64,21.73l-41.78-24.12c5.59-3.32,10.44-7.63,14.4-12.79h0ZM16.58,94.44c2.5-6.02,3.8-12.36,3.88-18.87l41.86,24.17c-3.5,7.67-6.11,15.73-7.69,23.82l-48.64-13.03c4.54-4.66,8.11-10.07,10.6-16.09h-.01ZM6.86,130.72c.86-6.46.47-12.92-1.13-19.23l48.71,13.06c-1.5,8.11-1.97,16.22-1.26,23.94.02.17.04.34.05.51H.78c3.18-5.68,5.23-11.82,6.07-18.28h0ZM.78,150h52.55c.91,8.74,2.64,16.51,5.01,23.41l-49.65,13.3c-.67-1.55-1.3-3.11-1.9-4.7.64-4.54.67-9.14.06-13.73-.85-6.46-2.89-12.6-6.07-18.28h0ZM108.08,290.79c.97.17,1.94.33,2.92.48l-.47,1.75c-.8-.77-1.62-1.51-2.45-2.23ZM136.48,293.23c4.16,0,8.35-.19,12.52-.51v5.49c-3.99-2.23-8.19-3.89-12.52-4.98h0ZM150,298.21v-5.58c2.77-.23,5.53-.52,8.27-.89,9.26-1.25,18.34-3.37,27.14-6.26l2.09,7.79c-12.75-3.23-26.03-1.48-37.51,4.94h0ZM188.47,293.02l-2.1-7.85c11.25-3.78,22.04-8.86,32.13-15.15l4.93,8.54c-13.15.17-25.53,5.3-34.95,14.47h0ZM224.29,278.04l-4.94-8.56c4.92-3.11,9.68-6.49,14.23-10.17,4.65-3.77,8.97-7.8,12.97-12.05l7.75,7.75c-12.66,3.58-23.28,11.73-30.01,23.03ZM255.01,254.31l-7.77-7.77c8.04-8.65,14.73-18.23,19.93-28.52l10.87,6.28c-11.3,6.73-19.45,17.36-23.03,30.01h0ZM278.54,223.43l-10.92-6.31c3.74-7.55,6.68-15.48,8.77-23.71.75-2.95,1.38-5.91,1.91-8.89l14.72,3.94c-9.17,9.43-14.3,21.8-14.48,34.96h0ZM293.28,187.51l-14.82-3.97c1.87-11.15,2.17-22.41.92-33.54h18.84c-6.42,11.48-8.17,24.76-4.94,37.51ZM149.5,156.88c4.07,0,7.38-3.31,7.38-7.38s-3.31-7.38-7.38-7.38-7.38,3.31-7.38,7.38,3.31,7.38,7.38,7.38ZM149.5,143.12c3.52,0,6.38,2.86,6.38,6.38s-2.86,6.38-6.38,6.38-6.38-2.86-6.38-6.38,2.86-6.38,6.38-6.38Z"/>
</svg>