<?xml version="1.0" encoding="UTF-8"?>
<svg id="_レイヤー_1" xmlns="http://www.w3.org/2000/svg" version="1.1" viewBox="0 0 116 85">
  <!-- Generator: Adobe Illustrator 29.8.2, SVG Export Plug-In . SVG Version: 2.1.1 Build 3)  -->
  <defs>
    <style>
      .st0 {
        fill: #282828;
        fill-rule: evenodd;
      }
    </style>
  </defs>
  <path class="st0" d="M8.25,85.66v-25.66h52.5v25.66h5v-25.66h42.5v25.66h7.75V1.12c-.26.63-.7,1.17-1.32,1.5-2.83.44-4.93,2-4.93,3.88,0,1.66,1.65,3.09,4,3.69v.31h-.5c-1.66,0-3,1.34-3,3v4.17c-1.2.43-2,1.56-2,2.83v9.5H8.25v-9.5c0-1.27-.8-2.4-2-2.83v-4.17c0-1.66-1.34-3-3-3h-.5v-.31c2.35-.6,4-2.03,4-3.69,0-1.88-2.1-3.44-4.93-3.88C.86,2.1.25,1.1.25,0c0,.4-.1.77-.25,1.12v84.54h8.25ZM65.75,35h42.5v20h-42.5v-20ZM8.25,35h52.5v20H8.25v-20Z"/>
</svg>