<?xml version="1.0" encoding="UTF-8"?>
<svg id="_レイヤー_1" xmlns="http://www.w3.org/2000/svg" version="1.1" viewBox="0 0 121 121">
  <!-- Generator: Adobe Illustrator 29.8.2, SVG Export Plug-In . SVG Version: 2.1.1 Build 3)  -->
  <defs>
    <style>
      .st0, .st1 {
        fill: #fff;
      }

      .st1 {
        isolation: isolate;
        opacity: .6;
      }
    </style>
  </defs>
  <circle class="st1" cx="60.5" cy="60.5" r="60"/>
  <path class="st0" d="M60.5,121C27.1,121,0,93.9,0,60.5S27.1,0,60.5,0s60.5,27.1,60.5,60.5-27.1,60.5-60.5,60.5ZM60.5,1C27.7,1,1,27.7,1,60.5s26.7,59.5,59.5,59.5,59.5-26.7,59.5-59.5S93.3,1,60.5,1ZM60.5,113c-29,0-52.5-23.6-52.5-52.5S31.5,8,60.5,8s52.5,23.5,52.5,52.5-23.6,52.5-52.5,52.5ZM60.5,9c-28.4,0-51.5,23.1-51.5,51.5s23.1,51.5,51.5,51.5,51.5-23.1,51.5-51.5S88.9,9,60.5,9ZM60.5,109c-26.7,0-48.5-21.8-48.5-48.5S33.8,12,60.5,12s48.5,21.8,48.5,48.5-21.8,48.5-48.5,48.5ZM60.5,13c-26.2,0-47.5,21.3-47.5,47.5s21.3,47.5,47.5,47.5,47.5-21.3,47.5-47.5S86.7,13,60.5,13Z"/>
  <path d="M21,27.5c0-2.7,1.6-5,3.9-6h71.1c2.3,1,3.9,3.3,3.9,6,0-3.6,2.9-6.5,6.5-6.5-3.6,0-6.5-2.9-6.5-6.5,0,2.7-1.7,5-4,6H25c-2.3-1-4-3.3-4-6,0,3.6-2.9,6.5-6.5,6.5,3.6,0,6.5,2.9,6.5,6.5ZM100,18.3c.7,1.1,1.6,2.1,2.7,2.7-1.1.7-2.1,1.6-2.7,2.7-.7-1.1-1.6-2.1-2.7-2.7,1.1-.7,2.1-1.6,2.7-2.7ZM21,18.3c.7,1.1,1.6,2.1,2.7,2.7-1.1.7-2.1,1.6-2.7,2.7-.7-1.1-1.6-2.1-2.7-2.7,1.1-.7,2.1-1.6,2.7-2.7ZM100,93.5c0,2.8-1.7,5.1-4.2,6H25.2c-2.4-.9-4.2-3.3-4.2-6,0,3.6-2.9,6.5-6.5,6.5,3.6,0,6.5,2.9,6.5,6.5,0-2.6,1.6-4.9,3.8-5.9h71.3c2.2,1,3.8,3.3,3.8,5.9,0-3.6,2.9-6.5,6.5-6.5-3.6,0-6.5-2.9-6.5-6.5ZM21,102.7c-.7-1.1-1.6-2.1-2.7-2.7,1.1-.7,2.1-1.6,2.7-2.7.7,1.1,1.6,2.1,2.7,2.7-1.1.7-2.1,1.6-2.7,2.7ZM100,102.7c-.7-1.1-1.6-2.1-2.7-2.7,1.1-.7,2.1-1.6,2.7-2.7.7,1.1,1.6,2.1,2.7,2.7-1.1.7-2.1,1.6-2.7,2.7Z"/>
</svg>